<svg width="40" height="29" viewBox="0 0 40 29" fill="none" xmlns="http://www.w3.org/2000/svg">
<path d="M16 2.39615V1" stroke="white" stroke-width="1.909" stroke-miterlimit="10" stroke-linecap="round"/>
<path d="M22 4.62826L22.9539 2" stroke="white" stroke-width="1.909" stroke-miterlimit="10" stroke-linecap="round"/>
<path d="M30.8931 24.0719L30 23" stroke="white" stroke-width="1.909" stroke-miterlimit="10" stroke-linecap="round"/>
<path d="M25.8105 11.3966L28.2237 9.99286" stroke="white" stroke-width="1.909" stroke-miterlimit="10" stroke-linecap="round"/>
<path d="M32 16H38.316" stroke="white" stroke-width="1.909" stroke-miterlimit="10" stroke-linecap="round"/>
<path d="M1 16H2.57709" stroke="white" stroke-width="1.909" stroke-miterlimit="10" stroke-linecap="round"/>
<path d="M7.75 28V22.5M7.75 11.5V6M5 8.75H10.5M5 25.25H10.5M17.1 7.1L15.1924 12.0597C14.8822 12.8663 14.7271 13.2696 14.4859 13.6088C14.2721 13.9094 14.0094 14.1721 13.7088 14.3859C13.3696 14.6271 12.9663 14.7822 12.1597 15.0924L7.2 17L12.1597 18.9076C12.9663 19.2178 13.3696 19.3729 13.7088 19.6141C14.0094 19.8279 14.2721 20.0906 14.4859 20.3912C14.7271 20.7304 14.8822 21.1337 15.1924 21.9403L17.1 26.9L19.0076 21.9402C19.3178 21.1337 19.4729 20.7304 19.7141 20.3912C19.9279 20.0906 20.1906 19.8279 20.4912 19.6141C20.8304 19.3729 21.2337 19.2178 22.0403 18.9076L27 17L22.0403 15.0924C21.2337 14.7822 20.8304 14.6271 20.4912 14.3859C20.1906 14.1721 19.9279 13.9094 19.7141 13.6088C19.4729 13.2696 19.3178 12.8663 19.0076 12.0597L17.1 7.1Z" stroke="white" stroke-width="2" stroke-linecap="round" stroke-linejoin="round"/>
</svg>
