<svg width="41" height="27" viewBox="0 0 41 27" fill="none" xmlns="http://www.w3.org/2000/svg">
<path d="M18.9361 2.7931L18.9361 2.79312L31.2912 8.24756C31.5473 8.27667 31.7521 8.48863 31.7521 8.75906V13.481C32.0116 13.5698 32.2431 13.7217 32.4386 13.9368C32.7172 14.2402 32.8973 14.6415 33.0155 15.0551C33.1343 15.4712 33.1953 15.917 33.2247 16.3253C33.2542 16.7344 33.2523 17.112 33.2428 17.3935C33.2381 17.5345 33.2315 17.6519 33.2259 17.7375C33.2246 17.757 33.2234 17.7748 33.2222 17.7908C33.2209 17.8101 33.2197 17.8268 33.2186 17.8407L33.2164 17.8713C33.2158 17.8799 33.2157 17.882 33.2157 17.8812L33.2153 17.8902L33.2143 17.8992C33.1972 18.0493 33.1134 18.19 32.9832 18.2752C32.9829 18.2754 32.9825 18.2756 32.9822 18.2759L32.8458 18.0663C32.343 18.4008 31.8136 18.5093 31.3375 18.5093C30.421 18.5093 29.6824 18.1011 29.6379 18.075L18.9361 2.7931ZM18.9361 2.7931L18.9333 2.79191C18.7976 2.73396 18.6485 2.73618 18.515 2.78986L18.5149 2.78973L18.5072 2.79314L6.05819 8.2915L6.0578 8.29167C5.87117 8.37448 5.74902 8.55856 5.74902 8.76341C5.74902 8.96825 5.87117 9.15234 6.0578 9.23514L6.0584 9.23541L10.3851 11.1414V21.758C10.3851 22.3504 10.7723 22.8773 11.3369 23.0715L11.337 23.0715C12.4037 23.4377 15.164 24.249 18.7684 24.249C20.9622 24.249 23.468 23.9506 26.0961 23.0633M18.9361 2.7931L29.5125 18.2913C29.3699 18.209 29.2739 18.0662 29.256 17.8989C29.2466 17.8192 29.182 17.1316 29.2395 16.3254C29.2686 15.9171 29.3294 15.4713 29.4479 15.0553C29.5657 14.6415 29.7453 14.2401 30.0229 13.9367L30.2074 14.1054L30.0223 13.9373C30.2164 13.7238 30.4475 13.5677 30.7093 13.4793V9.52943L27.0626 11.1412V21.7449C27.0626 22.3437 26.669 22.8699 26.0961 23.0633M26.0961 23.0633L26.0162 22.8264L26.0962 23.0632C26.0962 23.0632 26.0962 23.0633 26.0961 23.0633ZM25.7609 22.0848L25.7585 22.0856C19.1388 24.314 13.3069 22.6564 11.6829 22.0952C11.5289 22.0415 11.4324 21.9024 11.4324 21.758V11.6009L18.5083 14.7235C18.5914 14.7627 18.673 14.768 18.7239 14.768C18.796 14.768 18.8657 14.7513 18.921 14.7311L18.9286 14.7283L18.936 14.725L26.0154 11.6009V21.7449C26.0154 21.8937 25.9149 22.0347 25.7609 22.0848ZM30.7962 14.6266L30.7976 14.625C30.9192 14.4907 31.057 14.429 31.2307 14.425C31.4044 14.429 31.5423 14.4907 31.6638 14.625L31.6647 14.626C31.7892 14.762 31.894 14.9646 31.9769 15.2215C32.0591 15.4761 32.1148 15.7689 32.1504 16.0711C32.2134 16.6077 32.2104 17.1548 32.1878 17.5327C31.4669 17.8809 30.6745 17.6632 30.2692 17.5017C30.249 17.1213 30.2477 16.5838 30.3105 16.058C30.3839 15.4425 30.5385 14.9065 30.7962 14.6266ZM7.55684 8.75472L18.7239 3.82497L28.72 8.23979H18.7817C18.4981 8.23979 18.2603 8.46333 18.2603 8.75472C18.2603 9.04613 18.4981 9.26965 18.7817 9.26965H28.72L18.7239 13.6845L7.55684 8.75472Z" fill="white" stroke="white" stroke-width="0.5"/>
<path d="M8.99902 1.99902L13.8723 2.00276" stroke="white" stroke-width="1.909" stroke-miterlimit="10" stroke-linecap="round"/>
<path d="M1.99902 16.9951H6.87606" stroke="white" stroke-width="1.909" stroke-miterlimit="10" stroke-linecap="round"/>
<path d="M29.999 22.999H34.8761" stroke="white" stroke-width="1.909" stroke-miterlimit="10" stroke-linecap="round"/>
<path d="M32.999 3.99902H34.2118" stroke="white" stroke-width="1.909" stroke-miterlimit="10" stroke-linecap="round"/>
<path d="M3.99902 22.9951H5.21179" stroke="white" stroke-width="1.909" stroke-miterlimit="10" stroke-linecap="round"/>
<path d="M27.999 0.999023H31.1997" stroke="white" stroke-width="1.909" stroke-miterlimit="10" stroke-linecap="round"/>
<path d="M8.99902 26.0028L12.1997 25.999" stroke="white" stroke-width="1.909" stroke-miterlimit="10" stroke-linecap="round"/>
<path d="M35.999 12.999L39.1997 13.1188" stroke="white" stroke-width="1.909" stroke-miterlimit="10" stroke-linecap="round"/>
<path d="M0.999023 10.999H4.19969" stroke="white" stroke-width="1.909" stroke-miterlimit="10" stroke-linecap="round"/>
</svg>
