<svg width="37" height="34" viewBox="0 0 37 34" fill="none" xmlns="http://www.w3.org/2000/svg">
<path d="M25.3353 13.1224C25.3353 15.0831 22.8043 17.4596 21.5958 19.4394C20.2012 21.7206 19.9693 23.4791 17.712 23.4791C15.5459 23.4791 15.3825 21.8579 13.9954 19.7064C12.6843 17.6771 10.085 15.1747 10.085 13.1263C10.085 8.89585 13.4976 5.47034 17.712 5.47034C21.9227 5.46653 25.3353 8.89204 25.3353 13.1224Z" stroke="white" stroke-width="1.909" stroke-miterlimit="10" stroke-linecap="round"/>
<path d="M19.4072 25.1155H16.0098V28.7356H19.4072V25.1155Z" stroke="white" stroke-width="1.909" stroke-miterlimit="10" stroke-linecap="round"/>
<path d="M17.708 3.36087V1.96472" stroke="white" stroke-width="1.909" stroke-miterlimit="10" stroke-linecap="round"/>
<path d="M13.9226 4.03225L12.9688 1.40399" stroke="white" stroke-width="1.909" stroke-miterlimit="10" stroke-linecap="round"/>
<path d="M8.12018 8.91876L5.70703 7.5188" stroke="white" stroke-width="1.909" stroke-miterlimit="10" stroke-linecap="round"/>
<path d="M21.5195 4.03225L22.4734 1.40399" stroke="white" stroke-width="1.909" stroke-miterlimit="10" stroke-linecap="round"/>
<path d="M24.8486 5.96247L25.7455 4.89056" stroke="white" stroke-width="1.909" stroke-miterlimit="10" stroke-linecap="round"/>
<path d="M10.5903 5.96247L9.69727 4.89056" stroke="white" stroke-width="1.909" stroke-miterlimit="10" stroke-linecap="round"/>
<path d="M27.3223 8.91879L29.7354 7.51501" stroke="white" stroke-width="1.909" stroke-miterlimit="10" stroke-linecap="round"/>
<path d="M5.14453 25.4589H11.4643" stroke="white" stroke-width="1.909" stroke-miterlimit="10" stroke-linecap="round"/>
<path d="M29.5225 13.8205H35.8384" stroke="white" stroke-width="1.909" stroke-miterlimit="10" stroke-linecap="round"/>
<path d="M7.51562 20.9195H9.09272" stroke="white" stroke-width="1.909" stroke-miterlimit="10" stroke-linecap="round"/>
<path d="M24.5107 25.5848H26.0878" stroke="white" stroke-width="1.909" stroke-miterlimit="10" stroke-linecap="round"/>
<path d="M25.3613 18.5049H26.9346" stroke="white" stroke-width="1.909" stroke-miterlimit="10" stroke-linecap="round"/>
<path d="M15.2227 32.9698H16.7997" stroke="white" stroke-width="1.909" stroke-miterlimit="10" stroke-linecap="round"/>
<path d="M28.5273 20.9233L32.681 20.9195" stroke="white" stroke-width="1.909" stroke-miterlimit="10" stroke-linecap="round"/>
<path d="M19.9238 32.5197L24.0737 32.5159" stroke="white" stroke-width="1.909" stroke-miterlimit="10" stroke-linecap="round"/>
<path d="M1.3252 16.1856L5.47504 16.1818" stroke="white" stroke-width="1.909" stroke-miterlimit="10" stroke-linecap="round"/>
</svg>
