<svg width="34" height="31" viewBox="0 0 34 31" fill="none" xmlns="http://www.w3.org/2000/svg">
<path d="M23.4639 6.92533C23.7384 6.7869 24.0573 6.70459 24.4059 6.70459C25.4073 6.70459 26.2158 7.37804 26.2158 8.20488V13.5027C26.2158 14.1836 24.1574 14.7561 22.8594 14.9394" stroke="white" stroke-width="1.909" stroke-miterlimit="10" stroke-linecap="round"/>
<path d="M8.97062 6.959C8.68133 6.79812 8.33271 6.70459 7.95812 6.70459C6.95675 6.70459 6.14453 7.37804 6.14453 8.20488V13.5027C6.14453 14.1874 8.23999 14.7635 9.53435 14.9431" stroke="white" stroke-width="1.909" stroke-miterlimit="10" stroke-linecap="round"/>
<path d="M8.92969 5.27838V12.0091C8.92969 15.4924 11.3404 18.3957 14.567 19.1477V27.9849H12.3788C11.6631 27.9849 11.0771 28.8977 11.0771 30.0276H20.8608C20.8608 30.0276 20.2785 27.9849 19.559 27.9849H17.5637V19.2076C20.9239 18.564 23.4607 15.5896 23.4607 12.0129V5.27838H8.92969Z" stroke="white" stroke-width="1.909" stroke-miterlimit="10" stroke-linecap="round"/>
<path d="M16.0766 7.46381L17.4971 10.3671L20.6792 10.8385L18.376 13.0946L18.9212 16.286L16.0766 14.7782L13.2394 16.286L13.7809 13.0946L11.4814 10.8385L14.6599 10.3671L16.0766 7.46381Z" stroke="white" stroke-width="1.909" stroke-miterlimit="10" stroke-linecap="round"/>
<path d="M18.8652 0.999023L23.7386 1.00276" stroke="white" stroke-width="1.909" stroke-miterlimit="10" stroke-linecap="round"/>
<path d="M2.59863 20.8318H7.47567" stroke="white" stroke-width="1.909" stroke-miterlimit="10" stroke-linecap="round"/>
<path d="M27.3213 16.6712H32.1983" stroke="white" stroke-width="1.909" stroke-miterlimit="10" stroke-linecap="round"/>
<path d="M24.1758 20.2151H25.3885" stroke="white" stroke-width="1.909" stroke-miterlimit="10" stroke-linecap="round"/>
<path d="M5.53613 3.56903H6.75261" stroke="white" stroke-width="1.909" stroke-miterlimit="10" stroke-linecap="round"/>
<path d="M6.19238 26.3546H7.40515" stroke="white" stroke-width="1.909" stroke-miterlimit="10" stroke-linecap="round"/>
<path d="M29.7617 10.1242H32.9624" stroke="white" stroke-width="1.909" stroke-miterlimit="10" stroke-linecap="round"/>
<path d="M11.6074 2.62264L14.8081 2.6189" stroke="white" stroke-width="1.909" stroke-miterlimit="10" stroke-linecap="round"/>
<path d="M23.8721 25.7188L27.0727 25.8385" stroke="white" stroke-width="1.909" stroke-miterlimit="10" stroke-linecap="round"/>
<path d="M1 15.0029H4.20067" stroke="white" stroke-width="1.909" stroke-miterlimit="10" stroke-linecap="round"/>
</svg>
