<svg width="44" height="32" viewBox="0 0 44 32" fill="none" xmlns="http://www.w3.org/2000/svg">
<path d="M21 2.39486V0.998718" stroke="white" stroke-width="1.909" stroke-miterlimit="10" stroke-linecap="round"/>
<path d="M16.9539 4.62698L16 1.99872" stroke="white" stroke-width="1.909" stroke-miterlimit="10" stroke-linecap="round"/>
<path d="M11.4131 12.3987L9 10.9987" stroke="white" stroke-width="1.909" stroke-miterlimit="10" stroke-linecap="round"/>
<path d="M25 3.62698L25.9539 0.998718" stroke="white" stroke-width="1.909" stroke-miterlimit="10" stroke-linecap="round"/>
<path d="M30 5.07062L30.8969 3.99872" stroke="white" stroke-width="1.909" stroke-miterlimit="10" stroke-linecap="round"/>
<path d="M13.8931 8.07062L13 6.99872" stroke="white" stroke-width="1.909" stroke-miterlimit="10" stroke-linecap="round"/>
<path d="M1 27.9987H7.31977" stroke="white" stroke-width="1.909" stroke-miterlimit="10" stroke-linecap="round"/>
<path d="M33.2734 15.4225H39.5894" stroke="white" stroke-width="1.909" stroke-miterlimit="10" stroke-linecap="round"/>
<path d="M4 21.9987H5.57709" stroke="white" stroke-width="1.909" stroke-miterlimit="10" stroke-linecap="round"/>
<path d="M34 27.9987H35.5771" stroke="white" stroke-width="1.909" stroke-miterlimit="10" stroke-linecap="round"/>
<path d="M36 18.9987H37.5733" stroke="white" stroke-width="1.909" stroke-miterlimit="10" stroke-linecap="round"/>
<path d="M38 23.0025L42.1536 22.9987" stroke="white" stroke-width="1.909" stroke-miterlimit="10" stroke-linecap="round"/>
<path d="M5.07812 17.7867L9.22797 17.7829" stroke="white" stroke-width="1.909" stroke-miterlimit="10" stroke-linecap="round"/>
<path d="M31.3975 20.8834L31.3969 20.8841C31.3626 20.922 30.8893 21.4586 30.6651 22.3207C30.4422 23.1778 30.4632 24.3638 31.4242 25.7148C31.4804 25.7889 31.4979 25.8767 31.4904 25.9566C31.5027 26.0587 31.467 26.1589 31.3955 26.2316C31.3511 26.2811 30.8866 26.815 30.6651 27.6667C30.4422 28.5239 30.4632 29.7102 31.4247 31.0616C31.5043 31.1702 31.5176 31.3152 31.4531 31.4341C31.3938 31.5511 31.2717 31.6256 31.1389 31.6256H13.9599C12.4292 31.6256 11.1891 30.3811 11.1891 28.8547V28.4033C11.1891 27.3422 11.7903 26.4177 12.6675 25.9539C11.7903 25.4901 11.1891 24.5656 11.1891 23.5046V23.0532C11.1891 21.5224 12.4335 20.2823 13.9599 20.2823H18.8254C18.4391 19.9916 18.0901 19.6159 17.7846 19.1543C17.1892 18.2547 16.8299 17.1171 16.6905 16.0699C16.5517 15.0273 16.628 14.052 16.9269 13.485L16.9271 13.4847C17.4267 12.5443 18.3436 12.1611 19.2446 12.036C20.0731 11.921 20.9028 12.0216 21.4211 12.1173C21.3923 11.6563 21.3663 10.927 21.4151 10.1901C21.442 9.78479 21.4916 9.37511 21.5767 9.00541C21.6614 8.6369 21.7829 8.30142 21.9572 8.04937L21.9577 8.0487C22.0689 7.89066 22.2893 7.85114 22.4509 7.9608L22.4523 7.96176L22.4523 7.96177C22.6103 8.07299 22.6499 8.29337 22.5402 8.45498L22.5399 8.45545C22.4307 8.61446 22.3434 8.8424 22.2767 9.11922C22.2369 9.28437 22.2051 9.46457 22.1802 9.6542C22.4352 9.32255 22.7779 9.00047 23.2371 8.7567C23.8495 8.43162 24.662 8.24953 25.7365 8.36207L25.7371 8.36214C25.8417 8.37377 25.9335 8.43138 25.991 8.51157C26.0549 8.59905 26.072 8.70424 26.0492 8.80177L26.0492 8.80167L25.9517 8.77919L26.0491 8.8021L31.3975 20.8834ZM31.3975 20.8834C31.4883 20.7813 31.5194 20.6308 31.4598 20.4997C31.4028 20.3744 31.2767 20.2864 31.1347 20.2864H24.804L31.3975 20.8834ZM22.1147 11.7515C22.1132 11.7186 22.1119 11.685 22.1106 11.6509C22.0766 11.6483 22.0431 11.6453 22.0102 11.6423C22.0114 11.6765 22.0128 11.7101 22.0142 11.7431C22.0467 11.7461 22.0802 11.749 22.1147 11.7515ZM22.1425 12.2367C22.1078 12.2435 22.0748 12.2502 22.0436 12.2568C22.0414 12.224 22.0391 12.1905 22.0368 12.156C22.0681 12.1495 22.1011 12.1429 22.1357 12.1362C22.138 12.1705 22.1402 12.204 22.1425 12.2367ZM25.843 19.1582C25.8431 19.1581 25.8431 19.1581 25.8432 19.158L25.7595 19.1033L25.8429 19.1585C25.8429 19.1584 25.843 19.1583 25.843 19.1582ZM22.1565 9.85636C22.1147 9.9168 22.0758 9.97726 22.0395 10.0373C22.0454 9.96438 22.0521 9.89209 22.0597 9.82072L22.1565 9.85636ZM23.4516 10.8127L23.4516 10.8127C22.9961 10.978 22.5956 11.0524 22.2485 11.0436C22.3447 10.7228 22.548 10.2407 22.9639 9.83112C23.4134 9.38836 24.1192 9.0222 25.2313 9.04577C24.9232 9.86466 24.2787 10.5126 23.4516 10.8127ZM26.404 23.4462L25.5376 24.2073V21.0006H27.741V24.2073L26.8746 23.4462L26.8742 23.4458C26.7405 23.3295 26.5382 23.3295 26.4044 23.4458L26.404 23.4462ZM21.5575 12.8767L21.558 12.8769L21.5602 12.8774C21.5916 12.8843 21.6274 12.8923 21.6644 12.8974C21.7058 12.9157 21.7563 12.9294 21.8096 12.9294H21.8096H21.8097H21.8097H21.8098H21.8098H21.8099H21.8099H21.81H21.81H21.8101H21.8101H21.8102H21.8102H21.8103H21.8103H21.8104H21.8104H21.8105H21.8105H21.8106H21.8106H21.8107H21.8107H21.8108H21.8108H21.8108H21.8109H21.8109H21.811H21.811H21.8111H21.8111H21.8112H21.8112H21.8113H21.8113H21.8114H21.8114H21.8115H21.8115H21.8116H21.8116H21.8117H21.8117H21.8118H21.8118H21.8119H21.8119H21.812H21.812H21.8121H21.8121H21.8122H21.8122H21.8123H21.8123H21.8124H21.8124H21.8125H21.8125H21.8126H21.8126H21.8127H21.8127H21.8128H21.8128H21.8129H21.8129H21.813H21.813H21.8131H21.8131H21.8132H21.8132H21.8132H21.8133H21.8133H21.8134H21.8134H21.8135H21.8135H21.8136H21.8136H21.8137H21.8137H21.8138H21.8138H21.8139H21.8139H21.814H21.814H21.8141H21.8141H21.8142H21.8142H21.8143H21.8143H21.8144H21.8144H21.8145H21.8145H21.8146H21.8146H21.8147H21.8147H21.8148H21.8148H21.8149H21.8149H21.815H21.815H21.8151H21.8151H21.8152H21.8152H21.8153H21.8153H21.8154H21.8154H21.8155H21.8155H21.8156H21.8156H21.8156H21.8157H21.8157H21.8158H21.8158H21.8159H21.8159H21.816H21.816H21.8161H21.8161H21.8162H21.8162H21.8163H21.8163H21.8164H21.8164H21.8165H21.8165H21.8166H21.8166H21.8167H21.8167H21.8168H21.8168H21.8169H21.8169H21.817H21.817H21.8171H21.8171H21.8172H21.8172H21.8173H21.8173H21.8174H21.8174H21.8175H21.8175H21.8176H21.8176H21.8177H21.8177H21.8178H21.8178H21.8179H21.8179H21.818H21.818H21.818H21.8181H21.8181H21.8182H21.8182H21.8183H21.8183H21.8184H21.8184H21.8185H21.8185H21.8186H21.8186H21.8187H21.8187H21.8188H21.8188H21.8189H21.8189H21.819H21.819H21.8191H21.8191H21.8192H21.8192H21.8193H21.8193H21.8194H21.8194H21.8195H21.8195H21.8196H21.8196H21.8197H21.8197H21.8198H21.8198H21.8199H21.8199H21.82H21.82H21.8201H21.8201H21.8202H21.8202H21.8203H21.8203H21.8204H21.8204H21.8204H21.8205H21.8205H21.8206H21.8206H21.8207H21.8207H21.8208H21.8208H21.8209H21.8209H21.821H21.821H21.8211H21.8211H21.8212H21.8212H21.8213H21.8213H21.8214H21.8214H21.8215H21.8215H21.8216H21.8216H21.8217H21.8217H21.8218H21.8218H21.8219H21.8219H21.822H21.822H21.8221H21.8221H21.8222H21.8222H21.8223H21.8223H21.8224H21.8224H21.8225H21.8225H21.8226H21.8226H21.8227H21.8227H21.8228H21.8228H21.8228H21.8229H21.8229H21.823H21.823H21.8231H21.8231H21.8232H21.8232H21.8233H21.8233H21.8234H21.8234H21.8235H21.8235H21.8236H21.8236H21.8237H21.8237H21.8238H21.8238H21.8239H21.8239H21.824H21.824H21.8241H21.8241H21.8242H21.8242H21.8243H21.8243H21.8244H21.8244H21.8245H21.8245H21.8246H21.8246H21.8247H21.8247H21.8248H21.8248H21.8249H21.8249H21.825H21.825H21.8251H21.8251H21.8252H21.8252H21.8252H21.8253H21.8253H21.8254H21.8254H21.8255H21.8255H21.8256H21.8256H21.8257H21.8257H21.8258H21.8258H21.8259H21.8259H21.826H21.826H21.8261H21.8261H21.8262H21.8262H21.8263H21.8263H21.8264H21.8264H21.8265H21.8265H21.8266H21.8266H21.8267H21.8267H21.8268H21.8268H21.8269H21.8269H21.827H21.827H21.8271H21.8271H21.8272H21.8272H21.8273H21.8273H21.8274H21.8274H21.8275H21.8275H21.8276H21.8276H21.8276H21.8277H21.8277H21.8278H21.8278H21.8279H21.8279H21.828H21.828H21.8281H21.8281H21.8282H21.8282H21.8283H21.8283H21.8284H21.8284H21.8285H21.8285H21.8286H21.8286H21.8287H21.8287H21.8288H21.8288H21.8289H21.8289H21.829H21.829H21.8291H21.8291H21.8292H21.8292H21.8293H21.8293H21.8294H21.8294H21.8295H21.8295H21.8296H21.8296H21.8297H21.8297H21.8298H21.8298H21.8299H21.8299H21.83H21.83H21.83H21.8301H21.8301H21.8302H21.8302H21.8303H21.8303H21.8304H21.8304H21.8305H21.8305H21.8306H21.8306H21.8307H21.8307H21.8308H21.8308H21.8309H21.8309H21.831H21.831H21.8311H21.8311H21.8312H21.8312H21.8313H21.8313H21.8314H21.8314H21.8315H21.8315H21.8316H21.8316H21.8317H21.8317H21.8318H21.8318H21.8319H21.8319H21.832H21.832H21.8321H21.8321H21.8322H21.8322H21.8323H21.8323H21.8324H21.8324H21.8324H21.8325H21.8325H21.8326H21.8326H21.8327H21.8327H21.8328H21.8328H21.8329H21.8329H21.833H21.833H21.8331H21.8331H21.8332H21.8332H21.8333H21.8333H21.8334H21.8334H21.8335H21.8335H21.8336H21.8336H21.8337H21.8337H21.8338H21.8338H21.8339H21.8339H21.834H21.834H21.8341H21.8341H21.8342H21.8342H21.8343H21.8343H21.8344H21.8344H21.8345H21.8345H21.8346H21.8346H21.8347V12.9302L21.8471 12.9286C21.882 12.9243 21.922 12.9156 21.961 12.8971C21.9973 12.892 22.0323 12.8842 22.0631 12.8774L22.0653 12.8769C22.438 12.794 23.2435 12.6471 24.0571 12.7164C24.873 12.7858 25.6698 13.0695 26.0682 13.8209L26.0683 13.821C26.172 14.0159 26.2455 14.3156 26.2767 14.6894C26.3078 15.0612 26.2964 15.4986 26.2361 15.9639C26.1152 16.8955 25.7994 17.929 25.2456 18.7638L25.2455 18.7639C24.5672 19.7895 23.6857 20.2944 22.63 20.2823H22.6288H20.7716C19.8159 20.2292 19.0114 19.7204 18.3777 18.7638C17.824 17.927 17.5092 16.8934 17.3888 15.9624C17.3287 15.4974 17.3175 15.0603 17.3484 14.6887C17.3794 14.3153 17.4524 14.0158 17.5552 13.8207C17.9515 13.0695 18.7483 12.7848 19.5647 12.7148C20.3788 12.6451 21.1853 12.792 21.5575 12.8767ZM28.2439 25.3119L28.244 25.3121L28.2502 25.3093C28.3782 25.2512 28.4593 25.1234 28.4593 24.9842V21.0006H30.461C29.974 21.8519 29.3546 23.5512 30.4884 25.5655H13.9599C12.8239 25.5655 11.9032 24.6448 11.9032 23.5088V23.0573C11.9032 21.9214 12.828 21.0006 13.9599 21.0006H24.8277V21.904H14.3821C14.1848 21.904 14.0271 22.0617 14.0271 22.259C14.0271 22.4563 14.1848 22.614 14.3821 22.614H24.8277V23.9438H14.3821C14.1848 23.9438 14.0271 24.1014 14.0271 24.2987C14.0271 24.4961 14.1848 24.6537 14.3821 24.6537H24.8277V24.9842C24.8277 25.1234 24.9088 25.2512 25.0368 25.3093C25.1648 25.3675 25.3156 25.3443 25.4203 25.2514C25.4203 25.2514 25.4204 25.2513 25.4205 25.2512L26.6456 24.1768L27.8699 25.2505C27.8701 25.2507 27.8703 25.2509 27.8706 25.2511C27.9369 25.3111 28.0242 25.3392 28.1043 25.3392C28.1576 25.3392 28.2033 25.3271 28.2439 25.3119ZM30.461 26.3507C29.974 27.202 29.3546 28.9013 30.4884 30.9156H13.9599C12.8239 30.9156 11.9032 29.9949 11.9032 28.8589V28.4075C11.9032 27.2716 12.828 26.3507 13.9599 26.3507H30.461Z" fill="white" stroke="white" stroke-width="0.2"/>
<path d="M14.377 27.9686H28.8349C29.0322 27.9686 29.1899 27.811 29.1899 27.6136C29.1899 27.4163 29.0322 27.2586 28.8349 27.2586H14.377C14.1797 27.2586 14.0221 27.4163 14.0221 27.6136C14.0221 27.812 14.185 27.9686 14.377 27.9686Z" fill="white" stroke="white" stroke-width="0.2"/>
<path d="M14.377 30.0123H28.8349C29.0322 30.0123 29.1899 29.8547 29.1899 29.6574C29.1899 29.46 29.0322 29.3024 28.8349 29.3024H14.377C14.1797 29.3024 14.0221 29.46 14.0221 29.6574C14.0221 29.8558 14.185 30.0123 14.377 30.0123Z" fill="white" stroke="white" stroke-width="0.2"/>
<path d="M33 10.4025L35.4131 8.99872" stroke="white" stroke-width="1.909" stroke-miterlimit="10" stroke-linecap="round"/>
</svg>
