<svg width="277" height="69" viewBox="0 0 277 69" fill="none" xmlns="http://www.w3.org/2000/svg">
<path d="M267.948 21.2145H268.775C269.736 21.2145 270.556 20.8579 270.556 19.9246C270.556 19.2948 270.109 18.6272 268.775 18.6272C268.402 18.6272 268.164 18.6575 267.948 18.6954V21.2145ZM267.948 25.3344H266.756V17.8988C267.367 17.8001 267.948 17.7242 268.82 17.7242C269.945 17.7242 270.66 17.967 271.107 18.2857C271.554 18.5968 271.763 19.0824 271.763 19.8184C271.763 20.7972 271.144 21.3966 270.355 21.6469V21.6773C270.973 21.8063 271.457 22.4133 271.591 23.4907C271.725 24.644 271.912 25.0992 272.076 25.3344H270.831C270.653 25.0916 270.451 24.4239 270.31 23.4148C270.146 22.4816 269.684 22.1174 268.775 22.1174H267.948V25.3344ZM269.155 15.797C266.264 15.797 263.902 18.3161 263.902 21.48C263.902 24.606 266.264 27.1251 269.192 27.1251C272.091 27.1554 274.445 24.606 274.445 21.5028C274.445 18.3161 272.091 15.797 269.192 15.797H269.155ZM269.192 14.7576C272.798 14.7576 275.637 17.7546 275.637 21.48C275.637 25.2054 272.798 28.1342 269.162 28.1342C265.556 28.1342 262.673 25.2054 262.673 21.48C262.673 17.7622 265.556 14.7576 269.162 14.7576H269.192Z" fill="white"/>
<path d="M18.5747 21.7227L10.759 33.1114L2.92833 21.7227H0.447266V41.1844H3.42007V27.1856L10.759 38.0053L18.0829 27.1856V41.1844H21.0557V21.7227H18.5747Z" fill="white"/>
<path d="M83.9842 41.1844H81.0039V21.7227H83.9842V29.2797H97.3953V21.7227H100.368V41.1844H97.3953V32.1326H83.9842V41.1844Z" fill="white"/>
<path d="M111.491 21.7227H113.041L125.186 35.3952V21.7227H128.121V41.1844H126.564L114.427 27.5574V41.1844H111.491V21.7227Z" fill="white"/>
<path d="M149.96 33.6728L146.264 26.2068L142.502 33.6728H149.96ZM145.296 21.7227H147.166L156.963 41.1768H153.76L151.286 36.2298H141.213L138.732 41.1768H135.58L145.296 21.7227Z" fill="white"/>
<path d="M164.205 36.1388C166.955 37.9977 170.255 38.9917 172.945 38.9917C176.514 38.9917 178.622 37.2997 178.622 35.2056C178.622 32.9217 176.663 31.9354 172.669 31.8519C166.813 31.7533 163.565 30.9187 163.565 26.7759C163.565 23.5437 166.5 21.2144 171.44 21.2144C174.726 21.2144 177.803 22.1476 180.686 24.0217L179.181 26.5331C176.7 24.8487 173.809 23.9686 171.395 23.9686C168.37 23.9686 166.582 25.1826 166.582 26.7835C166.582 28.6424 168.557 29.1508 172.543 29.1508C178.689 29.1508 181.752 31.2904 181.752 35.3877C181.752 38.8399 178.593 41.7839 173.265 41.7839C169.644 41.7839 165.852 40.7064 162.745 38.7034L164.205 36.1388Z" fill="white"/>
<path d="M194.7 21.6772H191.683V41.2224H194.7V21.6772Z" fill="white"/>
<path d="M208.894 21.791V34.2268C208.894 38.0509 210.317 38.9917 215.369 38.9917C220.39 38.9917 221.806 38.0509 221.806 34.2268V21.791H224.794V35.0159C224.794 39.8111 221.962 41.7763 215.317 41.7763C208.589 41.7763 205.929 39.8111 205.929 35.0159V21.791H208.894Z" fill="white"/>
<path d="M235.917 21.7227H238.383L246.214 33.1114L254.059 21.7227H256.525V41.1844H253.538V27.1856L246.214 38.0053L238.89 27.1856V41.1844H235.917V21.7227Z" fill="white"/>
<path fill-rule="evenodd" clip-rule="evenodd" d="M65.1486 58.279C65.2305 58.2335 65.1933 58.0894 65.1188 58.0438C65.089 58.0438 65.0517 58.0438 65.0219 58.0438C64.9846 58.1197 64.9921 58.3549 65.1486 58.279ZM64.8431 57.1789C64.8356 57.2547 64.9176 57.3837 65.0219 57.361C65.1337 57.323 65.1337 57.1333 65.0443 57.065C65.007 57.0271 64.9623 57.0271 64.9176 57.0271C64.8729 57.0726 64.8431 57.1257 64.8431 57.1789ZM32.2838 60.7981V60.8208C32.254 60.8208 32.2391 60.8056 32.2242 60.7981H32.2838ZM33.5876 57.2623C33.5504 57.3003 33.5131 57.323 33.5057 57.3685C33.4684 57.4748 33.4759 57.8238 33.6621 57.7783C33.841 57.7327 33.7814 57.4217 33.6994 57.3306C33.6547 57.2851 33.6249 57.2851 33.5876 57.2623ZM61.304 53.4686C61.2444 53.5065 61.2072 53.5293 61.155 53.5824C61.1178 53.5976 61.0805 53.6735 61.0582 53.6735C61.0582 53.7038 61.0433 53.7038 61.0805 53.7038C61.1401 53.7721 61.4158 53.7493 61.5126 53.7342H61.5201V53.7266H61.5424C61.5126 53.5293 61.4903 53.4686 61.304 53.4686ZM33.312 55.798C33.2896 55.8587 33.2896 55.9725 33.3865 55.9725C33.3865 55.9649 33.379 55.9497 33.379 55.9497C33.4088 55.8662 33.379 55.8359 33.312 55.798ZM31.8069 54.8344C31.792 55.0013 31.8144 55.1758 31.9708 55.2365C32.0006 55.2592 32.0305 55.2592 32.0603 55.2592C32.1199 55.0696 32.023 54.8571 31.8069 54.8344ZM58.7038 51.033C58.6814 51.0862 58.6665 51.1165 58.6665 51.1772C58.6889 51.1772 58.7112 51.162 58.741 51.162C58.741 51.1089 58.7485 51.071 58.7038 51.033ZM57.1019 50.6385C57.1391 50.6233 57.2062 50.6082 57.2136 50.6385H57.2211C57.2211 50.6613 57.2434 50.7144 57.2211 50.7296V50.7371C57.154 50.722 57.1242 50.6992 57.1019 50.6385ZM31.3897 53.6962C31.3822 53.7266 31.345 53.7949 31.3822 53.7949C31.4642 53.8176 31.4344 53.719 31.3897 53.6962ZM58.9943 49.5611C58.9347 49.6294 58.8602 49.6749 58.8379 49.766C58.7932 49.9784 59.0167 50.2212 59.2327 50.1529C59.3743 50.0846 59.3073 49.9405 59.2775 49.8342C59.2477 49.7508 59.2477 49.6749 59.1955 49.6218C59.1359 49.5687 59.0688 49.5611 58.9943 49.5611ZM31.0172 51.7159V51.7387C31.0023 51.7539 30.9725 51.7766 31.0023 51.7766C31.0172 51.7842 31.047 51.7994 31.047 51.8297H31.0619V51.8146C31.0693 51.7842 31.0768 51.7842 31.0768 51.769C31.0619 51.7463 31.0321 51.7159 31.0172 51.7159ZM32.4104 50.9951C32.3955 51.0255 32.3732 51.0482 32.3508 51.0786C32.3061 51.1924 32.3955 51.4428 32.4551 51.549C32.47 51.5945 32.4924 51.64 32.5147 51.6856C32.7979 51.6856 32.634 51.4352 32.5743 51.2986C32.5222 51.1772 32.5594 51.0558 32.4104 50.9951ZM51.499 40.8128C51.5735 40.7976 51.5958 41.0252 51.8194 40.9114C51.946 40.8356 51.9758 40.5928 51.8194 40.5169C51.7747 40.5093 51.7449 40.5093 51.6852 40.5093C51.5884 40.5928 51.5362 40.699 51.499 40.8128ZM66.3258 35.843C66.3705 35.8279 66.4077 35.7899 66.4301 35.752C66.6312 35.5168 66.4003 35.3499 66.1618 35.3726C66.1022 35.5168 66.0873 35.9113 66.3258 35.843ZM32.999 39.2574C32.9618 39.2574 32.999 39.1967 32.999 39.1891C33.0214 39.2118 33.0437 39.2726 32.999 39.2574ZM68.0692 34.6746C67.9947 34.7277 67.8829 34.7656 67.8531 34.8643C67.7935 35.0615 68.0916 35.3954 68.2853 35.3499C68.4492 35.3043 68.3821 34.8491 68.3002 34.7353C68.2406 34.6822 68.1512 34.6746 68.0692 34.6746ZM33.0437 38.0737C33.0139 38.1193 32.8724 38.3165 33.0139 38.3317C33.148 38.3469 33.1629 38.1193 33.0437 38.0737ZM27.5228 37.0722C27.5452 37.1177 27.575 37.1632 27.6271 37.1784C27.8357 37.2088 28.0071 36.7308 27.9475 36.5714C27.9475 36.5259 27.7389 36.5259 27.6867 36.5259C27.5303 36.6549 27.3962 36.8446 27.5228 37.0722ZM66.594 31.3665C66.5344 31.4575 66.5046 31.5789 66.6312 31.5789C66.6759 31.5789 66.7355 31.5486 66.7728 31.5486C66.7952 31.3968 66.7355 31.3665 66.594 31.3665ZM24.7437 36.4273H24.7214C24.7214 36.4424 24.7214 36.45 24.7214 36.45C24.7661 36.4956 24.8108 36.5563 24.848 36.6094C24.9151 36.7004 24.8927 36.8218 25.0194 36.8749C25.0194 36.837 25.0939 36.7687 25.1237 36.7308C25.1684 36.6397 25.2802 36.2376 25.1312 36.1541C25.0715 36.1389 24.9821 36.1541 24.9151 36.1541C24.8331 36.2376 24.7661 36.321 24.7437 36.4273ZM23.8869 36.2983C23.8198 36.617 24.4382 36.7308 24.5947 36.488C24.632 36.4349 24.6171 36.359 24.5798 36.3059C24.4755 36.101 24.3116 36.0631 24.0806 36.101C24.0136 36.1465 23.9167 36.2072 23.8869 36.2983ZM38.0431 34.06C38.0208 34.1435 38.0431 34.2042 38.058 34.28C38.0804 34.2952 38.1027 34.2952 38.1325 34.2952C38.1474 34.189 38.14 34.1207 38.0431 34.06ZM26.9417 35.9037C26.9789 35.9189 27.0162 35.9644 27.0758 35.9417C27.1577 35.9417 27.195 35.843 27.2248 35.7672C27.2695 35.6837 27.3142 35.6002 27.3291 35.4788C27.3589 35.1829 27.195 34.9022 26.8895 34.9022C26.6213 35.1071 26.5989 35.7444 26.9417 35.9037ZM40.8222 33.0888C40.7552 33.1343 40.6657 33.1647 40.6285 33.2481C40.5316 33.5061 40.9563 33.6579 41.1351 33.6351C41.1575 33.5896 41.2096 33.5516 41.2245 33.5061C41.2841 33.3392 41.15 33.1267 41.0234 33.0888C40.9638 33.0585 40.8893 33.0736 40.8222 33.0888ZM36.8287 33.5365C36.7914 33.5896 36.7393 33.6275 36.7318 33.6654C36.6051 33.9917 36.851 34.5152 37.2459 34.3104C37.3428 34.2649 37.3577 34.1738 37.3726 34.1055C37.3949 33.9993 37.4247 33.8855 37.3726 33.7868C37.3055 33.6351 37 33.5365 36.8287 33.5365ZM40.3007 32.6791C40.2783 32.7018 40.2634 32.7625 40.2411 32.7929C40.2038 32.9446 40.3305 33.0888 40.4646 33.0736C40.5987 32.8764 40.554 32.6639 40.3007 32.6791ZM46.9615 31.4347C46.9243 31.4727 46.8796 31.5334 46.8721 31.5865C46.8498 31.7003 46.9988 31.8217 47.1106 31.7686C47.2372 31.7231 47.2 31.5258 47.1106 31.4575C47.0658 31.4347 47.0062 31.4347 46.9615 31.4347ZM43.6386 31.1995C43.5119 31.2982 43.3852 31.4575 43.5268 31.6093C43.564 31.6548 43.6311 31.6851 43.7056 31.67C43.9142 31.6472 43.9515 31.3589 43.7801 31.2299C43.7354 31.2147 43.6833 31.2147 43.6386 31.1995ZM44.704 30.7974C44.6667 30.8277 44.5028 30.8657 44.5177 30.9719C44.6071 31.0174 44.6965 31.0554 44.8009 30.9947C44.8381 30.9719 44.8605 30.9264 44.8754 30.9264C44.853 30.8429 44.8009 30.805 44.704 30.7974ZM41.4779 31.025C41.4332 31.1995 41.4555 31.3968 41.5226 31.5486C41.5524 31.6017 41.5673 31.6472 41.5896 31.6851C42.0143 31.7155 41.7386 31.0705 41.4779 31.025ZM45.6875 30.3649C45.6428 30.418 45.5832 30.4636 45.5608 30.5318C45.4714 30.7519 45.6055 31.1237 45.8887 31.0933C45.993 30.9719 46.1643 30.9036 46.2314 30.7367C46.2463 30.676 46.2314 30.6077 46.209 30.5622C46.1271 30.3649 45.9036 30.3573 45.6875 30.3649ZM35.7632 31.0933C35.6887 31.2147 35.5397 31.3665 35.644 31.5106C35.6664 31.5334 35.6887 31.5486 35.726 31.541C35.7856 31.4196 35.942 31.2147 35.7632 31.0933ZM48.1909 28.8171C48.094 28.855 47.9227 28.9005 47.8705 28.984C47.8258 29.0675 47.8929 29.2116 47.9152 29.2799C47.9376 29.3558 47.945 29.4317 47.9599 29.5C47.9972 29.6289 48.1387 29.811 48.2803 29.8566C48.3399 29.8793 48.407 29.8717 48.4964 29.8717C48.556 29.8793 48.6081 29.9021 48.6603 29.9021C48.7571 29.6669 48.7571 29.2875 48.6156 29.0599C48.5262 28.9309 48.3176 28.8171 48.1909 28.8171ZM49.3308 27.679V27.7093C49.1595 27.8383 49.3756 28.1646 49.5767 28.0128C49.7406 27.8838 49.4277 27.7017 49.3308 27.679ZM35.9346 29.0219V29.0447C35.9122 29.0599 35.8824 29.1206 35.8526 29.1206C35.8824 29.1737 35.942 29.2496 36.0091 29.1965C36.0836 29.1206 35.9867 29.0371 35.9346 29.0219ZM49.234 26.5409C49.1148 26.6091 48.9732 26.6091 48.8987 26.7381C48.7795 26.9582 49.003 27.1479 49.1222 27.3072C49.1669 27.3831 49.2042 27.4513 49.3085 27.4286C49.4948 27.4058 49.6587 27.0265 49.6587 26.8595C49.6587 26.7381 49.5693 26.5712 49.465 26.5333C49.4054 26.5181 49.3159 26.5333 49.234 26.5409ZM36.0687 27.7852V27.808C35.7483 27.9901 35.8303 28.5667 36.2848 28.506C36.3444 28.4681 36.4263 28.4453 36.4561 28.3694C36.4934 28.2784 36.4934 28.2101 36.4636 28.119C36.404 27.8535 36.3295 27.7928 36.0687 27.7852ZM35.5919 25.5241C35.5025 25.5848 35.3758 25.6987 35.4354 25.8504C35.4503 25.8732 35.4801 25.9035 35.5099 25.9035C35.6366 25.9111 35.7483 25.6987 35.6887 25.5848C35.6664 25.5545 35.644 25.5469 35.5919 25.5241ZM34.4966 22.4664C34.586 22.4209 34.4966 22.254 34.4221 22.2084C34.3774 22.1781 34.3327 22.1781 34.2731 22.1933C34.206 22.345 34.2954 22.6106 34.4966 22.4664ZM59.1359 16.4572L59.1508 16.4648C59.0539 16.5558 59.0837 16.6393 59.1061 16.7455C59.3073 16.7455 59.2924 16.6393 59.2775 16.4648C59.2253 16.4648 59.1806 16.4572 59.1359 16.4572ZM37.2459 18.6575C37.1937 18.8396 37.2236 19.0748 37.1043 19.2038C37.0075 19.31 36.8287 19.2721 36.7095 19.3252C36.6648 19.3404 36.6126 19.3859 36.5828 19.4466C36.4934 19.5377 36.4934 19.6287 36.4934 19.7729C36.5306 20.084 36.6424 20.0916 36.8734 20.2205C36.9404 20.2433 37 20.304 37.0596 20.3192C37.149 20.3192 37.231 20.2812 37.313 20.2433C37.6855 20.0688 37.5439 19.7274 37.462 19.3783C37.462 19.2873 37.5365 19.219 37.5365 19.1279C37.5514 18.999 37.3577 18.7106 37.2459 18.6575ZM43.1319 16.8745C43.117 16.9655 43.1617 17.2463 43.3033 17.1552C43.4001 17.0869 43.3331 16.9352 43.266 16.8972C43.2288 16.8745 43.1692 16.8745 43.1319 16.8745ZM37.2385 17.2083C37.1788 17.2614 37.1341 17.3221 37.1341 17.4208C37.1118 17.5877 37.3353 17.9443 37.529 17.8684C37.7451 17.7774 37.6855 17.4208 37.5439 17.2994C37.462 17.2235 37.3428 17.2083 37.2385 17.2083ZM40.2411 15.1977V15.2128C40.1367 15.2887 40.1964 15.4329 40.1368 15.5315C40.1144 15.6301 40.0399 15.706 39.9803 15.7895C39.9281 15.8957 39.876 16.0019 39.8387 16.1082C39.7791 16.2751 39.8015 16.4724 39.7568 16.6317C39.6823 16.791 39.5929 16.9428 39.5109 17.1021C39.4289 17.2539 39.4289 17.4284 39.3917 17.618C39.3693 17.7243 39.2948 17.8001 39.2874 17.9064C39.2725 18.0657 39.3321 18.2554 39.3395 18.4071C39.3321 18.6348 39.3172 18.8624 39.2948 19.0976C39.2799 19.2569 39.3246 19.4163 39.2948 19.5984C39.2799 19.6894 39.2576 19.7956 39.2203 19.8943C39.1756 19.9702 39.1011 20.0309 39.0639 20.1143C39.0043 20.2585 38.9446 20.395 38.9297 20.5392C38.8776 20.8806 38.9968 21.26 39.0415 21.609C39.0415 21.7304 39.0192 21.8139 39.0043 21.9353C39.0043 22.0415 39.0043 22.1174 38.9894 22.2388C38.9894 22.3602 39.0341 22.474 39.0341 22.5954C39.0117 22.9444 38.885 23.2555 38.8105 23.5893C38.8105 23.6956 38.7733 23.7942 38.7658 23.9004C38.7286 24.037 38.6094 24.166 38.5945 24.3102C38.5796 24.424 38.6392 24.5226 38.6913 24.6137C38.7137 24.6971 38.736 24.7882 38.7509 24.8792C38.7658 25.1068 38.7509 25.3269 38.7137 25.5393C38.6615 25.7366 38.6094 25.9111 38.5945 26.116C38.5945 26.1767 38.6243 26.2298 38.6541 26.2677C38.6988 26.4043 38.736 26.5409 38.7137 26.6698C38.6988 26.7305 38.6615 26.7837 38.6466 26.8368C38.4753 27.1858 38.1921 26.7837 38.0953 27.072C38.0133 27.3148 38.0953 27.5727 38.0953 27.8383C38.1102 27.9749 38.0729 28.119 38.0804 28.2632C38.1027 28.4453 38.1474 28.6198 38.1176 28.7867C38.0953 28.9157 38.0804 29.0447 38.0133 29.1358C37.8792 29.333 37.6631 29.4696 37.5886 29.72C37.529 29.8793 37.611 30.1145 37.611 30.2966C37.5961 30.3573 37.5961 30.4484 37.5886 30.5318C37.5737 30.6684 37.5737 30.805 37.5737 30.9643C37.5663 31.0705 37.5216 31.1768 37.5067 31.283C37.5216 31.4272 37.5365 31.5486 37.5439 31.67C37.5216 31.9052 37.3577 32.0948 37.3279 32.3149V32.3452H37.3428V32.3756C37.3428 32.3756 37.3651 32.3756 37.3651 32.368V32.3452C37.4694 32.2845 37.5663 32.2238 37.7302 32.2314C37.8047 32.2314 37.909 32.2769 37.991 32.3376C38.0506 32.368 38.0804 32.4211 38.1623 32.4211C38.2443 32.4211 38.3337 32.3832 38.4008 32.3376C38.4976 32.3073 38.8254 32.1024 38.8478 31.9962C38.885 31.8976 38.8627 31.7686 38.8478 31.6624C38.8478 31.5486 38.9074 31.3892 39.0043 31.3058C39.049 31.2602 39.0937 31.2071 39.1607 31.2071C39.3097 31.1388 39.6972 31.283 39.794 31.412C39.8536 31.4651 39.9132 31.6851 39.9281 31.761C39.9505 31.761 39.9654 31.7686 40.0101 31.7686C40.0995 31.541 40.2485 31.6548 40.3975 31.5106C40.4944 31.412 40.5912 31.3133 40.6732 31.2223C40.785 31.0933 40.8222 30.9492 41.0159 30.9188C41.0979 30.8581 41.1798 30.8202 41.2693 30.7746C41.3587 30.7367 41.4257 30.7898 41.5077 30.7746C41.5673 30.7671 41.91 30.6001 41.91 30.5394C41.9771 30.5546 42.059 30.5622 42.141 30.5546C42.2006 30.5091 42.3049 30.4711 42.3794 30.4711C42.7147 30.5015 42.521 30.9188 42.6923 30.9188C42.8711 30.934 42.886 30.6229 43.0202 30.5394C43.1096 30.4939 43.2586 30.4863 43.3703 30.5091C43.5938 30.5394 43.9217 30.7291 43.8323 30.2739C43.8174 30.1828 43.7652 30.1297 43.7354 30.0387C43.728 30.0083 43.728 29.9628 43.728 29.9248C43.795 29.8869 43.8919 29.9021 43.9664 29.8869C44.0409 29.8566 44.1228 29.8414 44.2048 29.811C44.3315 29.7883 44.4656 29.8262 44.6071 29.811C44.7487 29.7276 45.1063 29.7655 45.2851 29.7428C45.4491 29.6517 45.6353 29.7428 45.8067 29.7428C45.9259 29.7352 46.0377 29.7276 46.1494 29.7124C46.1792 29.6972 46.2165 29.6821 46.2463 29.6745C46.3133 29.6365 46.4176 29.6517 46.4772 29.6138C46.7753 29.4089 46.8274 28.9309 46.6561 28.6198C46.5741 28.4681 46.4772 28.3315 46.3804 28.1722C46.3506 28.0811 46.3357 27.9901 46.291 27.8914C46.2388 27.7776 46.1494 27.7169 46.0749 27.6107C46.0153 27.5196 45.9632 27.4058 45.8588 27.3375C45.6279 27.163 45.4714 27.6562 45.2479 27.4665C45.1063 27.3224 45.1287 27.0796 45.0765 26.8899C45.0393 26.6623 44.935 26.4877 44.9275 26.2601C44.9126 26.116 45.0169 25.9794 44.935 25.8428C44.8381 25.638 44.5922 25.5241 44.4879 25.3345C44.3762 25.0689 44.4879 24.6364 44.2942 24.4088C44.0632 24.1432 43.5789 24.1736 43.4448 23.8777C43.4001 23.7866 43.4225 23.6728 43.4299 23.5742C43.4299 23.468 43.415 23.3769 43.415 23.2707C43.415 23.172 43.4448 23.0886 43.4597 22.9824C43.4597 22.8913 43.3927 22.7927 43.3703 22.7168C43.3033 22.6182 43.1915 22.5347 43.1096 22.4436C42.9382 22.3147 42.6998 22.125 42.6178 21.9353C42.5806 21.8139 42.6178 21.7001 42.6327 21.609C42.6476 21.4573 42.6178 21.3055 42.6849 21.1766C42.8413 20.8503 43.4448 20.4937 43.1319 20.046C43.0649 19.9474 42.9084 19.8184 42.7817 19.8867C42.7072 19.9322 42.6476 19.9626 42.588 20.0005C42.5135 20.046 42.4167 20.084 42.3496 20.1447C42.2378 20.2585 42.2155 20.4937 42.0367 20.5013C41.9324 20.5164 41.4853 20.2281 41.4108 20.1219C41.314 20.0081 41.314 19.8563 41.2767 19.7198C41.1724 19.4694 40.8818 19.1355 40.9787 18.8169C41.0159 18.7031 41.1053 18.6348 41.232 18.612C41.5226 18.5589 41.7014 18.6955 41.8951 18.87C41.9473 18.9231 42.0069 18.9838 42.0739 19.0217C42.2155 19.1052 42.4017 19.1052 42.5582 19.1431C42.6253 19.1583 42.6774 19.1811 42.7296 19.1811C42.8115 18.9762 42.6551 18.9079 42.5731 18.7486C42.4614 18.5513 42.4763 18.2933 42.3049 18.1416C42.1708 18.005 41.9473 17.9822 41.761 17.9747C41.6939 17.9519 41.5971 17.9747 41.53 17.9443C41.3065 17.8684 41.2543 17.656 41.1277 17.5118C41.001 17.3904 40.8371 17.3373 40.7254 17.1856C40.621 16.9731 40.554 16.7151 40.6657 16.5103C40.703 16.3965 40.7775 16.3206 40.7775 16.2144C40.7999 16.0778 40.7179 15.9792 40.6806 15.8729C40.6657 15.7515 40.7179 15.6833 40.6806 15.5694C40.6806 15.5163 40.4273 15.2508 40.3901 15.2128C40.3305 15.2128 40.2858 15.2128 40.2411 15.1977ZM44.257 14.4996V14.5224C44.1526 14.5907 44.093 14.8486 44.2793 14.8411C44.4507 14.8107 44.5177 14.5224 44.257 14.4996ZM40.4273 12.8076V12.8304C40.3156 12.8987 40.2411 13.0656 40.2336 13.187C40.2113 13.3539 40.3305 13.7788 40.5242 13.7485C40.8073 13.7105 41.0234 12.9063 40.6434 12.8076C40.5912 12.7849 40.5093 12.8 40.4273 12.8076ZM40.4571 11.5861C40.3752 11.6695 40.2858 11.7378 40.256 11.8592C40.174 12.0413 40.2858 12.4055 40.5242 12.3676C40.9563 12.322 40.8669 11.6392 40.4571 11.5861ZM41.0234 8.99874C41.0457 9.1429 41.15 9.41605 41.314 9.25671C41.3438 9.23395 41.3438 9.18843 41.3363 9.1429C41.3289 8.98357 41.15 8.98357 41.0234 8.99874ZM40.5763 6.98807C40.5018 7.04877 40.405 7.07912 40.3603 7.16258C40.2783 7.29916 40.3901 7.51919 40.5465 7.50402C40.7775 7.48884 40.8446 7.01842 40.5763 6.98807ZM60.9315 1.03954C60.8719 1.19887 60.7825 1.25957 60.7527 1.43408C60.7303 1.58583 60.7974 1.76793 60.7303 1.91209C60.626 2.13212 60.3727 2.15489 60.2088 2.31422C60.0896 2.4508 60.03 2.56461 60.0225 2.76947C60.0002 2.89845 60.03 3.01227 59.9778 3.12608C59.9331 3.25506 59.7692 3.36887 59.7617 3.51303C59.7096 3.93034 60.3429 3.90758 60.3429 4.42353C60.3429 4.6815 60.097 4.78013 59.9778 4.99258C59.9257 5.07604 59.9406 5.23538 59.9331 5.34919C59.9108 5.49335 59.8512 5.62234 59.8586 5.7665C59.8586 6.09276 60.2758 6.10035 60.2907 6.35073C60.2907 6.51007 60.1045 6.548 60.0225 6.65423C59.9927 6.69975 59.9704 6.78321 59.9704 6.8515C59.9704 6.91979 59.948 6.99566 59.9704 7.07912C59.9927 7.17776 60.0821 7.22328 60.1566 7.29157C60.2684 7.37503 60.3578 7.55713 60.3801 7.72405C60.4025 7.9972 60.0449 8.34622 60.1417 8.55867C60.2088 8.72559 60.3801 8.65731 60.5143 8.65731C60.6335 8.65731 60.7154 8.70283 60.7974 8.7787C60.8346 8.82423 60.8719 8.88493 60.8942 8.93804C60.9315 9.24154 60.5292 9.63608 60.5292 9.94717C60.5292 10.0837 60.5962 10.19 60.6484 10.2962C60.6856 10.4252 60.7452 10.5617 60.7899 10.6831C60.8346 10.7514 60.8719 10.8121 60.9091 10.8804C60.924 10.9639 60.9613 11.0398 60.9762 11.1156C61.0582 11.3205 61.1625 11.5254 61.2221 11.7378C61.2966 11.8895 61.2072 12.0565 61.2221 12.231C61.2668 12.4207 61.4381 12.5269 61.4381 12.7469C61.4381 12.8835 61.3562 12.9897 61.3338 13.1263C61.3189 13.2325 61.3338 13.3539 61.3487 13.4677C61.3711 13.6271 61.3934 13.8016 61.4456 13.9457C61.5126 14.1127 61.7734 14.2568 61.684 14.4617C61.6021 14.621 61.3413 14.659 61.1848 14.7348C61.0135 14.8486 60.8421 14.9625 60.6782 15.0839C60.4845 15.1142 60.3951 15.2356 60.246 15.3191C60.1715 15.3646 60.0747 15.3798 60.0002 15.4405C59.8884 15.5315 59.7096 15.744 59.568 15.7667C59.3147 15.8122 59.3222 15.3115 59.039 15.3418C58.9124 15.3646 58.8602 15.4784 58.7485 15.5163C58.6218 15.5543 58.4802 15.4708 58.361 15.5543C58.2195 15.6453 58.1971 15.8122 58.1077 15.9185C58.0406 15.9943 57.9959 16.0626 57.9363 16.1157C57.7724 16.3054 57.6309 16.4724 57.4073 16.5786C57.4073 16.5558 57.3254 16.5406 57.303 16.5027C57.2881 16.4496 57.2658 16.4268 57.2583 16.3737C57.1838 16.1689 57.1317 15.835 56.8262 15.9564C56.7815 15.9943 56.7219 16.0247 56.6623 16.0626C56.6176 16.093 56.5505 16.1233 56.4984 16.1537C56.3121 16.1764 56.1407 16.1233 55.9619 16.1764C55.8204 16.222 55.8204 16.4496 55.6117 16.4041C55.3659 16.3585 55.3063 15.9109 54.9784 16.0475C54.8518 16.0854 54.8145 16.2296 54.7475 16.3206C54.6133 16.442 54.5165 16.5558 54.4047 16.6696C54.3153 16.7683 54.2483 16.8593 54.1514 16.92V16.9428C54.0769 16.9579 53.9875 16.8441 53.9204 16.8062C53.7863 16.6924 53.5628 16.4875 53.3393 16.6165C53.153 16.6469 52.937 16.6393 52.773 16.7227C52.7283 16.7531 52.6836 16.7758 52.6389 16.8138C52.5793 16.9048 52.5346 16.9807 52.4825 17.0793C52.4229 17.1704 52.2888 17.2539 52.2664 17.3753C52.2366 17.4815 52.2738 17.656 52.3111 17.7546C52.3856 17.9367 52.6389 17.9898 52.5048 18.225C52.4452 18.3768 52.2664 18.4982 52.0876 18.4754C51.9758 18.4678 51.879 18.4223 51.7672 18.4527C51.7001 18.4678 51.6405 18.521 51.6033 18.5665C51.5511 18.6196 51.5064 18.6575 51.4766 18.7182C51.4319 18.9838 51.8045 18.8776 51.9237 18.9686C52.0876 19.0748 52.1248 19.2797 52.2589 19.4466C52.2813 19.5149 52.3558 19.5604 52.4229 19.5984C52.4229 19.5984 52.4229 19.5984 52.4452 19.5984C52.5793 19.7046 53.0934 19.6818 53.3095 19.6742C53.384 19.6515 53.4585 19.6515 53.5256 19.6439C53.6671 19.6742 53.6522 19.8639 53.7789 19.8943C53.8757 19.9095 53.9651 19.9095 54.0546 19.9095C54.1216 19.955 54.1961 19.9702 54.2706 19.9929C54.3973 20.0309 54.5537 20.046 54.6953 20.0309C54.7922 20.0309 54.8816 19.9929 54.9859 19.9702C55.0827 19.9626 55.187 19.9474 55.2914 19.9474C55.4478 19.8943 55.6192 19.8412 55.7906 19.7956C55.9172 19.7729 56.0364 19.7956 56.1407 19.7501C56.2823 19.697 56.4015 19.6363 56.5282 19.5756C56.5803 19.5453 56.6325 19.5073 56.6846 19.4846C56.7889 19.4466 56.8858 19.5073 56.9752 19.5073C57.087 19.5149 57.2285 19.4846 57.3477 19.4466C57.4297 19.4087 57.5042 19.3707 57.6011 19.3252C57.8246 19.219 58.0406 19.1279 58.2865 19.0748C58.592 18.999 58.8081 19.1431 59.0986 19.1583C59.2477 19.1583 59.3669 19.0748 59.5233 19.0597C59.6723 19.0445 59.799 19.0748 59.9778 19.0445C60.1343 19.0217 60.246 18.9231 60.3876 18.8776C60.5143 18.832 60.6633 18.8093 60.7899 18.7713C60.9017 18.7334 60.9762 18.6651 61.088 18.6499C61.2519 18.6272 61.4381 18.6272 61.5946 18.6499C61.7287 18.6499 61.8032 18.7182 61.9373 18.6727C62.1311 18.6499 62.3546 18.4451 62.5483 18.5741C62.6079 18.612 62.6153 18.6651 62.6153 18.7334C62.6004 18.8776 62.5036 19.0141 62.3695 19.0521C62.2875 19.0824 62.1907 19.09 62.1385 19.1355C62.0863 19.1735 62.0714 19.2493 62.064 19.3176C62.0416 19.4466 62.1385 19.568 62.1161 19.7122C62.1012 19.955 61.8032 20.1295 61.9671 20.4102C62.0938 20.6682 62.3993 20.6454 62.4589 20.9565C62.5036 21.1993 62.1981 21.389 62.295 21.6166C62.4142 21.9201 62.8091 21.7228 62.9804 21.9505C63.122 22.1402 62.6973 22.5119 63.04 22.6106C63.0847 22.6409 63.1667 22.6409 63.2188 22.5954C63.3753 22.5195 63.4722 22.2009 63.718 22.3071C63.7553 22.3147 63.8223 22.3526 63.8372 22.4133C63.9192 22.5954 63.718 22.732 63.6584 22.9065C63.6286 22.9824 63.6361 23.0962 63.6286 23.1948C63.5914 23.2555 63.5765 23.3086 63.5541 23.3693C63.5318 23.4907 63.5541 23.6501 63.5988 23.7639C63.6137 23.8246 63.6584 23.8928 63.6584 23.9763C63.6808 24.1736 63.5765 24.4619 63.6137 24.6516C63.6361 24.6744 63.6361 24.6971 63.6584 24.7199C63.8298 24.8792 64.0459 24.5302 64.18 24.4695H64.1949C64.2992 24.4391 64.396 24.5302 64.5078 24.5302C64.6047 24.5302 64.709 24.4847 64.7984 24.5074C64.8282 24.5074 64.8729 24.5302 64.8952 24.5681C64.9101 24.5909 64.925 24.5985 64.925 24.6288C65.0294 24.9323 64.6717 25.1448 64.6419 25.4103C64.6196 25.5545 64.7388 25.6455 64.7835 25.7594C64.8654 26.0401 64.776 26.4802 64.5078 26.556C64.4855 26.4422 64.2396 26.1387 64.098 26.1994C63.8 26.2449 63.7553 26.5409 63.8 26.7988C63.8223 26.9278 63.8223 27.034 63.8671 27.1327C63.949 27.2465 64.0906 27.33 64.2098 27.3603C64.3066 27.3755 64.3811 27.3755 64.4631 27.4513C64.627 27.5727 64.7239 27.8611 64.8282 28.0432C64.9101 28.1342 64.9772 28.2253 65.0592 28.3163C65.0964 28.3922 65.1262 28.4756 65.1709 28.5515C65.2454 28.6502 65.3199 28.6957 65.3348 28.8398C65.3497 29.3482 64.4333 28.9537 64.4035 29.3027C64.3737 29.5607 64.8729 29.7731 65.0368 29.8641C65.0592 30.0235 64.7462 30.1904 64.6941 30.3497C64.6121 30.5318 64.6941 30.7974 64.7611 30.9795C64.8729 31.2223 65.1262 31.2451 65.3348 31.3513C65.454 31.412 65.5658 31.4651 65.685 31.503C65.7819 31.5106 65.8638 31.5106 65.9607 31.5106C66.0575 31.5334 66.2066 31.6168 66.2662 31.6851C66.4152 31.8521 66.4524 32.2694 66.3928 32.4818C66.3556 32.6184 66.296 32.7322 66.3109 32.9143H66.2885V32.9219C66.214 32.9446 66.1171 32.8308 66.0501 32.7929C65.9383 32.7322 65.8042 32.6791 65.6776 32.6184C65.536 32.5349 65.4466 32.3528 65.238 32.3983C65.1635 32.4135 65.1113 32.459 65.0741 32.5349C64.925 32.7701 65.2156 33.0129 65.3497 33.1723C65.4019 33.2557 65.4615 33.3392 65.5285 33.4302C65.5956 33.4985 65.7372 33.5972 65.7819 33.6958V33.8703C65.7819 33.9538 65.8117 34.0524 65.9085 34.0448C65.9458 34.0221 65.9681 34.0069 65.983 33.9841C66.0948 33.8779 65.9085 33.7868 65.9085 33.6882C65.9085 33.544 66.1768 33.3544 66.3034 33.3695C66.3258 33.4833 66.3034 33.5972 66.3481 33.7186C66.4077 33.9841 66.7057 34.06 66.9591 34.0069C67.0559 33.9841 67.1379 33.9007 67.272 33.9082C67.4061 33.931 67.4806 34.1814 67.421 34.3028C67.3838 34.3787 67.3242 34.3938 67.272 34.4394C67.1006 34.4697 66.9591 34.6139 66.9591 34.758C66.9293 34.9174 67.041 35.0236 67.123 35.1374C67.19 35.2664 67.2869 35.4713 67.3241 35.6306C67.354 35.8203 67.2422 35.972 67.2273 36.1389C67.2049 36.3135 67.354 36.4045 67.3987 36.5411C67.421 36.6701 67.3465 36.7535 67.3167 36.8446C67.2422 37.0039 67.3316 37.186 67.421 37.3074C67.4657 37.3757 67.5477 37.3985 67.6147 37.3833C67.7637 37.3453 67.8606 37.2391 67.9202 37.1101C67.9426 37.057 67.9575 36.9887 68.0096 36.9432C68.099 36.8673 68.2331 36.8673 68.3598 36.8522C68.4343 36.837 68.5088 36.799 68.5982 36.837C68.7547 36.9204 68.7472 37.1481 68.8366 37.2922C68.9186 37.4364 69.075 37.5047 69.075 37.6868C69.0974 37.8765 68.9558 38.0206 68.9335 38.1875C68.9037 38.4152 69.0751 38.6049 69.306 38.5821C69.3656 38.5517 69.4401 38.5366 69.4997 38.5138C69.6413 38.4531 69.7456 38.3393 69.8723 38.2862C69.9766 38.2482 70.1032 38.2938 70.2075 38.2482C70.3119 38.2103 70.3566 38.1117 70.3491 38.0055C70.3491 37.7778 70.1628 37.4895 69.9468 37.4136C69.8499 37.3681 69.7307 37.3909 69.6413 37.315C69.6189 37.2846 69.5966 37.2619 69.5966 37.2391C69.5742 37.2164 69.5742 37.1936 69.5519 37.1708C69.5519 37.1632 69.5519 37.1405 69.5444 37.1101C69.5519 37.0191 69.5519 36.928 69.5817 36.837C69.5593 36.6321 69.5146 36.4424 69.5146 36.23C69.5221 36.1845 69.5444 36.101 69.5519 36.0327C69.5593 35.8506 69.5593 35.6534 69.5146 35.4713C69.4625 35.2209 69.2166 35.2892 69.2017 35.0767C69.1868 34.8339 69.4774 34.8187 69.5146 34.6063C69.5146 34.5911 69.5146 34.5759 69.5146 34.5683C69.5146 34.3483 69.2017 34.28 69.157 34.0828C69.1347 33.9689 69.2315 33.8627 69.2911 33.7868C69.3284 33.7034 69.3731 33.6047 69.3731 33.5213C69.3731 33.3544 69.2166 33.2026 69.1347 33.0812C69.1123 33.0205 69.09 32.9674 69.0452 32.9067C69.0452 32.8536 68.9707 32.9295 68.9484 32.9446C68.859 33.066 68.859 33.2026 68.8292 33.3316C68.8068 33.4378 68.7845 33.5213 68.7472 33.6351C68.7249 33.6958 68.7025 33.7337 68.6727 33.7944C68.6429 33.8931 68.6355 33.9614 68.5535 34.0524C68.1586 34.1131 68.181 33.3316 68.099 33.0509C68.0543 32.9067 67.7861 32.7322 67.868 32.5729C67.9128 32.497 68.0916 32.459 68.181 32.4135C68.3151 32.3528 68.4715 32.2314 68.6429 32.239C68.8217 32.2694 68.9335 32.4363 69.008 32.5729C69.0303 32.6184 69.0527 32.6943 69.1049 32.7018C69.1794 32.7246 69.2837 32.6411 69.3358 32.5956C69.4848 32.459 69.4848 32.148 69.5146 31.981C69.537 31.9203 69.5519 31.8521 69.5742 31.7989C69.5966 31.7003 69.5966 31.5713 69.5966 31.4651C69.537 31.1844 69.2762 31.3058 69.1198 31.4272C69.0527 31.4272 68.9558 31.4347 68.926 31.4879C68.7547 31.5106 68.71 31.3058 68.7547 31.1844C68.7621 31.1388 68.7845 31.0857 68.8143 31.0402C68.7994 30.9871 68.7994 30.9416 68.7994 30.8809C68.777 30.7291 68.6355 30.6153 68.6578 30.4484C68.7174 30.2283 69.0527 30.3346 69.1049 30.1145C69.1272 29.94 68.6951 29.6517 68.6504 29.4165C68.6131 29.2344 68.7249 29.113 68.7398 28.9461C68.7621 28.726 68.7621 28.5363 68.7547 28.286C68.7547 28.1949 68.7174 28.1039 68.7174 28.0128C68.7249 27.899 68.8217 27.8307 68.7845 27.7169C68.7547 27.5879 68.5908 27.5272 68.5014 27.4438C68.4119 27.3527 68.3747 27.2617 68.3449 27.1327C68.3076 26.9582 68.2853 26.7381 68.3449 26.5788C68.4194 26.4043 68.5684 26.4877 68.5163 26.1994C68.4864 25.9794 68.4194 25.7821 68.2853 25.6304C68.2108 25.5621 68.1214 25.5014 68.0618 25.4255C68.0171 25.3572 67.9202 25.0537 67.9128 24.9627C67.868 24.6895 68.1661 24.553 68.1288 24.2722C68.0916 24.0674 67.9277 23.9232 67.8382 23.7487C67.7861 23.6501 67.7861 23.5059 67.7414 23.3921C67.6669 23.2176 67.5477 23.081 67.5104 22.8685C67.4881 22.732 67.5179 22.5575 67.5477 22.4209C67.5477 22.2995 67.5179 22.125 67.4955 21.996C67.4657 21.8063 67.3614 21.7456 67.3018 21.6014C67.2496 21.4649 67.2794 21.3131 67.272 21.1766C67.2422 21.0324 67.1975 20.8731 67.1602 20.7137C67.1453 20.4937 67.3018 20.3495 67.272 20.1219C67.2422 19.9777 67.1528 19.8791 67.1081 19.7577C67.0559 19.6439 67.0708 19.4921 66.9889 19.4087C66.9293 19.3707 66.8846 19.3328 66.825 19.3025C66.6685 19.2038 66.5493 19.1052 66.445 18.961C66.363 18.8017 66.4375 18.6196 66.4375 18.4603V18.1947C66.4226 18.0126 66.4003 17.8381 66.4226 17.656C66.4599 17.4739 66.5195 17.269 66.6089 17.1097C66.6089 17.0793 66.6238 17.0718 66.6238 17.049C66.6238 17.049 66.6238 17.0414 66.6461 17.0338C66.6461 17.0338 66.6536 17.0186 66.661 17.0111C66.6685 16.9959 66.6908 16.9959 66.6908 16.9807C66.7057 16.9655 66.7132 16.9579 66.7132 16.9579C66.7281 16.9504 66.7281 16.9504 66.7281 16.9504C66.7579 16.9124 66.8101 16.8897 66.825 16.8517C66.8846 16.8062 66.9516 16.7758 67.0336 16.7607C67.2347 16.7227 67.339 16.8062 67.5104 16.8517C67.6222 16.8821 68.0096 16.8062 68.1363 16.7758C68.4194 16.6848 68.5088 16.2827 68.859 16.2827H68.8813C69.0005 16.313 69.09 16.3737 69.1794 16.442C69.2166 16.4875 69.2837 16.5103 69.3507 16.5406C69.4997 16.6544 69.6786 16.7758 69.9021 16.7227C70.1852 16.6772 70.2448 16.2447 70.5354 16.2068C70.7365 16.1764 70.9079 16.3054 71.0942 16.2751C71.2581 16.2599 71.3475 16.1689 71.4742 16.1082C71.7275 16.0247 72.0032 15.9564 72.2565 15.8957C72.4427 15.8578 72.6216 15.9261 72.8227 15.8881C72.9792 15.8654 73.1208 15.7819 73.2921 15.7515C73.5305 15.6984 73.769 15.7136 73.9999 15.6453C74.1489 15.5998 74.2458 15.5087 74.3948 15.4632C74.4619 15.4253 74.5662 15.4405 74.6481 15.4101C74.8493 15.3494 75.0132 15.2432 75.1771 15.137C75.2442 15.1066 75.3038 15.0839 75.3783 15.0535C75.6391 14.9018 75.7285 14.53 75.8626 14.2796C75.9222 14.2037 76.0116 14.1202 76.0414 14.0216C76.0861 13.885 76.0489 13.6954 76.101 13.5588C76.1904 13.3843 76.4065 13.3387 76.3543 13.0884C76.2724 12.7242 76.0042 12.838 75.803 12.6483C75.7508 12.5952 75.7359 12.5345 75.7061 12.4738C75.6763 12.4055 75.5869 12.3448 75.505 12.2993C75.4677 12.2765 75.3932 12.2689 75.341 12.2765C75.0728 12.2917 75.0505 12.5041 74.8269 12.4814C74.5289 12.4434 74.3576 12.1551 73.9925 12.2993C73.9478 12.3296 73.9031 12.3524 73.8733 12.3751C73.7019 12.3827 73.5156 12.4358 73.3741 12.3751C73.2996 12.3448 73.2102 12.2993 73.1506 12.2613C73.0388 12.1855 72.9494 12.0261 72.7929 12.0565C72.6961 12.0944 72.6439 12.2158 72.5694 12.3069C72.48 12.4055 72.3906 12.5041 72.2863 12.6028C72.2416 12.6635 72.1596 12.6938 72.1149 12.7545C72.0181 12.7621 71.8988 12.7545 71.8318 12.7849C71.72 12.838 71.6679 12.9518 71.5785 13.0504C71.5412 13.0959 71.4891 13.1339 71.4444 13.1718C71.2059 13.2022 71.0271 13.0504 70.8111 13.0959C70.6546 13.1566 70.6248 13.3919 70.446 13.4146H70.4162H70.4013C70.1256 13.3767 69.7307 12.7849 69.4327 13.0201C69.3358 13.1111 69.3135 13.2553 69.2539 13.3539C69.2092 13.4222 69.1645 13.4601 69.1272 13.4905C69.0303 13.5057 68.9409 13.5133 68.8515 13.5057C68.7323 13.4905 68.6578 13.4374 68.5237 13.4222C68.3747 13.4222 68.0543 13.4677 67.9426 13.5284C67.8233 13.6043 67.719 13.7561 67.6222 13.8243C67.5328 13.9002 67.4285 13.9685 67.354 14.0292C67.2794 14.0975 67.3092 14.2113 67.2794 14.3099C67.2571 14.401 67.1975 14.4313 67.1453 14.53C67.0708 14.53 67.0187 14.5072 66.9665 14.4769C66.7728 14.3858 67.0038 14.0899 66.9516 13.8926C66.8771 13.6726 66.5716 13.4753 66.3705 13.4222C66.1842 13.3767 65.9756 13.5512 65.9532 13.7257C65.9458 13.8319 65.9979 13.9078 65.9979 14.0064C66.0128 14.0823 65.9756 14.3327 65.834 14.272C65.7074 14.1961 65.7223 14.0292 65.6478 13.9154C65.5881 13.8092 65.4838 13.7712 65.3944 13.6802C65.2976 13.5815 65.2156 13.4146 65.1858 13.2932C65.1411 13.1415 65.1411 12.9821 65.1113 12.8304C65.1113 12.7697 65.1188 12.6938 65.1039 12.6483C65.0294 12.4965 64.9027 12.4434 64.8803 12.2537C64.8803 12.1096 64.9772 11.9958 65.007 11.882C65.0666 11.6847 65.0443 11.495 65.0219 11.2826C64.9921 11.146 64.9623 10.9791 64.925 10.8273C64.9101 10.6528 64.925 10.4631 64.8654 10.2962C64.7984 10.1141 64.6568 10.0003 64.6047 9.79542C64.5451 9.51469 64.6047 9.22636 64.5078 8.98357C64.4631 8.86975 64.396 8.80905 64.329 8.70283C64.2023 8.51315 64.1129 8.32346 64.0384 8.08825C64.0012 7.95168 64.0459 7.86063 64.0459 7.73923C64.0384 7.54196 63.9937 7.3371 63.949 7.17017C63.8671 6.93496 63.5616 6.83633 63.502 6.63147C63.4647 6.44937 63.5243 6.27486 63.5243 6.10035C63.5243 5.96377 63.502 5.83479 63.4871 5.72097C63.4722 5.53129 63.502 5.37195 63.4871 5.17468C63.4349 4.81048 63.271 4.54492 63.2039 4.18832C63.1816 4.0745 63.189 3.94552 63.189 3.83171C63.1741 3.55856 63.1741 3.25506 63.0847 2.98192C63.0251 2.73153 62.8016 2.58737 62.7644 2.33698C62.7569 2.13971 62.8836 1.91209 62.8985 1.7224C62.9208 1.54789 62.8538 1.39614 62.8016 1.22922C62.7271 1.0016 62.6749 0.796738 62.4589 0.682927C62.2428 0.569116 62.146 0.796738 62.0118 0.902962C61.9522 0.948487 61.8703 0.971249 61.8107 1.00919C61.7734 1.03195 61.7287 1.03954 61.6691 1.05471C61.5126 1.06989 61.4307 1.22922 61.2593 1.17611C60.9837 1.06989 61.2593 0.789151 60.9837 0.758801C60.9315 0.865025 60.9688 0.956074 60.9315 1.03954ZM37.3726 3.4144C37.5588 3.4144 37.6408 3.49786 37.76 3.61167C37.8494 3.69513 37.9537 3.74066 38.0431 3.80136C38.1921 3.90758 38.2443 3.97587 38.4157 3.99104C38.6392 3.99104 38.6988 3.49786 38.9148 3.42957C39.3917 3.24748 39.2725 3.86964 39.5109 3.92276C39.6823 3.95311 39.7568 3.5965 39.9952 3.60408C40.0324 3.62685 40.092 3.63443 40.1368 3.6572C40.2187 3.69513 40.2783 3.7179 40.3454 3.76342C40.4497 3.86206 40.4348 3.99863 40.4944 4.09727C40.6136 4.33248 40.934 4.54492 40.9638 4.83325C40.9787 4.90153 40.9936 4.95464 40.9638 5.02293C40.9414 5.15192 40.8669 5.26573 40.934 5.40989C41.001 5.59199 41.2022 5.73615 41.2991 5.88031C41.381 5.97136 41.4183 6.06241 41.4853 6.14587C41.5524 6.20657 41.6418 6.27486 41.6865 6.36591C41.7088 6.47213 41.7461 6.57077 41.7684 6.68458C41.828 6.8515 41.91 6.99566 41.9175 7.20811C41.9175 7.30675 41.8951 7.35227 41.8653 7.44332C41.8579 7.52678 41.8802 7.64818 41.8877 7.74682C41.91 7.86063 41.9771 7.91374 42.0292 8.01996C42.0665 8.12619 42.0665 8.26276 42.1037 8.36898C42.1633 8.49797 42.3123 8.57384 42.3868 8.70283C42.4763 8.81664 42.521 8.95322 42.5955 9.07461C42.7072 9.27189 42.8562 9.42364 42.9605 9.6285C43.0127 9.71955 42.9978 9.81059 42.9829 9.90164C42.9829 10.0079 42.9978 10.1217 43.0276 10.2127C43.0649 10.3645 43.1245 10.5693 43.2213 10.6983C43.2958 10.8045 43.415 10.8804 43.4672 11.0094C43.5268 11.1612 43.4821 11.3508 43.5491 11.495C43.6162 11.6695 43.7801 11.7757 43.8695 11.9427C43.8844 12.0034 43.9068 12.0565 43.944 12.1248C43.9962 12.2537 44.0483 12.3448 44.0856 12.489C44.1154 12.5876 44.1303 12.7393 44.1601 12.838C44.2272 13.0049 44.3836 13.1111 44.4581 13.2856C44.5028 13.3994 44.4805 13.5588 44.5326 13.6726C44.5773 13.7636 44.6667 13.7636 44.7412 13.8092C44.8456 13.8623 44.935 13.9913 44.9797 14.0975C45.0542 14.3023 45.1957 14.5451 45.1734 14.8031C45.151 14.97 45.0467 15.1294 45.0691 15.2963C45.0765 15.486 45.3149 15.5012 45.3522 15.6757C45.3746 15.7591 45.3299 15.8426 45.3299 15.9261C45.3299 16.0323 45.3149 16.1992 45.3522 16.3054C45.4342 16.5103 45.8067 16.442 45.8588 16.7227C45.9259 17.1021 45.5012 16.9124 45.3075 16.9807C45.233 17.0338 45.2032 17.1021 45.1808 17.178C45.1659 17.2539 45.1212 17.3146 45.1659 17.398C45.3224 17.8608 45.9408 17.4435 46.1345 17.8533C46.1867 17.9595 46.1569 18.0581 46.1569 18.1643C46.1345 18.4223 46.1196 18.7486 46.2537 18.9686C46.3357 19.1052 46.4772 19.1886 46.6114 19.2873C46.7008 19.3556 46.7827 19.4542 46.8796 19.5377C47.0435 19.6818 47.2447 19.8032 47.3043 20.0157C47.3341 20.1143 47.3564 20.2812 47.349 20.3723C47.3341 20.4633 47.3266 20.5316 47.3043 20.6151C47.3266 20.8124 47.3341 21.0096 47.349 21.2069C47.349 21.3131 47.349 21.4497 47.3937 21.5332C47.5054 21.6925 47.7811 21.609 47.9376 21.738C48.0344 21.8291 48.0493 21.9581 48.1015 22.087C48.1685 22.1933 48.2281 22.3071 48.2878 22.4285C48.4144 22.5651 48.5485 22.7016 48.6677 22.8458C48.7795 22.9975 48.7646 23.2176 48.8242 23.4073C48.8689 23.468 48.9285 23.5135 48.9807 23.5742C49.0924 23.688 49.1818 23.8246 49.234 23.9535C49.2787 24.0977 49.2265 24.3709 49.234 24.5302C49.234 24.7806 49.3457 24.9399 49.3905 25.1599C49.4203 25.2738 49.3905 25.38 49.4352 25.4634C49.5022 25.6455 49.7183 25.5924 49.8673 25.6304C50.0163 25.6607 50.1728 25.7973 50.2175 25.949C50.2696 26.0704 50.2771 26.2298 50.2696 26.3663C50.2398 26.4802 50.1728 26.556 50.1951 26.685C50.2249 26.8595 50.3516 26.9961 50.4335 27.1403C50.4857 27.2541 50.5006 27.3679 50.5528 27.4893C50.5975 27.5803 50.6794 27.6334 50.7316 27.7169C50.7986 27.8307 50.8731 27.9445 50.9476 28.0659C51.0072 28.1646 51.0892 28.2177 51.1563 28.2708C51.2606 28.3694 51.3202 28.4984 51.4096 28.6046C51.4841 28.6805 51.5884 28.764 51.648 28.8474C51.7076 28.9309 51.7374 29.0219 51.7896 29.1054C51.9088 29.2496 52.1397 29.4165 52.3186 29.4468C52.4601 29.4468 52.6017 29.4241 52.7581 29.4089C52.9593 29.2799 53.1605 29.4468 53.3095 29.5075C53.6448 29.6365 53.9577 29.462 54.0173 29.9552C54.0322 30.0994 54.062 30.2511 54.0471 30.3573C54.0173 30.4636 53.9279 30.5394 53.8757 30.6457C53.8385 30.7215 53.8012 30.7898 53.7714 30.8505C53.7267 30.9188 53.6895 30.9643 53.615 30.9795C53.4809 31.0174 53.3542 30.9643 53.235 31.0174C53.1009 31.063 52.9891 31.1995 52.8699 31.2754C52.7209 31.3892 52.475 31.4651 52.3707 31.6548C52.2589 31.8521 52.408 32.2542 52.4229 32.497V32.8915C52.4229 32.9598 52.4601 33.0357 52.5048 33.0964C52.6017 33.2254 52.8177 33.1647 52.9146 33.3316C52.937 33.3695 52.937 33.4226 52.937 33.4682C52.9593 33.6275 52.9444 33.7868 52.9966 33.9234C53.0636 34.1055 53.2275 34.2345 53.302 34.409C53.4138 34.6822 53.2052 34.9553 53.3393 35.236C53.5032 35.6078 53.8459 34.9325 54.0695 35.3347C54.1961 35.5547 54.0471 35.6837 54.0546 35.8886C54.062 36.0327 54.1291 36.0934 54.1961 36.1921C54.2557 36.2907 54.293 36.4121 54.3079 36.5183C54.3079 36.6473 54.3079 36.7763 54.3004 36.8977C54.3004 37.0039 54.2408 37.0798 54.2557 37.1936C54.3228 37.3985 54.5463 37.3681 54.7028 37.444C54.7624 37.4743 54.7996 37.5274 54.8518 37.573C54.8518 37.5806 54.8592 37.6033 54.8741 37.6185C54.9337 37.7854 54.8443 37.9523 54.8965 38.1193C54.9337 38.2786 55.1125 38.3241 55.1498 38.4759C55.1722 38.5745 55.1945 38.6731 55.1721 38.7794C55.0976 38.9766 54.9412 39.1436 55.038 39.394C55.12 39.6292 55.4106 39.614 55.6117 39.6899C55.6788 39.7202 55.7384 39.7657 55.7906 39.8113C55.9545 39.9478 55.9768 40.1754 56.096 40.3348C56.1705 40.4334 56.2972 40.4789 56.3643 40.5928C56.4537 40.699 56.4015 40.8887 56.5133 41.0101C56.6101 41.1391 56.8187 41.1542 56.9007 41.2984C56.9901 41.4426 56.8858 41.6853 56.9454 41.8826C56.9678 41.9661 57.0125 42.0495 57.0572 42.1406C57.1391 42.2696 57.2434 42.3758 57.2583 42.5503C57.2807 42.7855 57.1391 42.998 57.2211 43.218C57.3403 43.5063 57.6532 43.1952 57.8171 43.5139C57.8469 43.6126 57.8693 43.6808 57.9065 43.7567C57.9587 43.8402 58.0034 43.9009 58.063 43.9919C58.1375 44.1437 58.212 44.3789 58.2791 44.5458C58.3312 44.7203 58.2865 44.9707 58.361 45.1225C58.4355 45.2363 58.5771 45.259 58.6889 45.3197C58.7932 45.3804 58.89 45.5322 58.9273 45.646C59.0241 45.9191 58.7485 46.0102 58.8155 46.1923C58.8528 46.2833 58.972 46.3288 59.0092 46.4275C59.039 46.5185 59.0837 46.602 59.1135 46.693C59.1582 46.8979 59.1582 47.08 59.3147 47.209C59.4637 47.3304 59.8139 47.3 59.881 47.4821C59.9555 47.6491 59.7617 47.7856 59.7021 47.8843C59.6574 47.9829 59.6276 48.0588 59.6053 48.1574C59.568 48.2181 59.568 48.294 59.6053 48.3547C59.7021 48.5216 59.948 48.4306 60.0896 48.5899C60.1045 48.6278 60.1194 48.6506 60.1417 48.6809C60.1939 48.8934 60.1194 49.0907 60.179 49.2879C60.246 49.4625 60.4845 49.3866 60.4919 49.6218C60.4919 49.6218 60.5068 49.6218 60.5068 49.6446C60.5068 49.6977 60.4845 49.7659 60.4398 49.7963C60.2907 49.9405 60.1715 49.728 60.0225 49.7432C59.948 49.7432 59.8959 49.7887 59.8586 49.8494C59.8139 49.9177 59.7915 49.986 59.7915 50.0695C59.7915 50.1377 59.8363 50.1605 59.8512 50.1984C59.9704 50.1605 60.1417 50.0619 60.2609 50.1605C60.2982 50.2288 60.3429 50.2971 60.3951 50.3805C60.4323 50.4336 60.4919 50.4868 60.559 50.5095C60.7601 50.593 60.7378 50.244 60.7601 50.1605C60.8272 49.9556 60.9986 49.8949 61.1699 49.986H61.1774L61.1848 50.0087C61.2295 50.0391 61.2593 50.077 61.2817 50.1377C61.3189 50.2288 61.3636 50.2971 61.3636 50.3957C61.386 50.5247 61.3636 50.6613 61.4009 50.7751C61.4679 50.9648 61.684 51.1544 61.6691 51.3593C61.6691 51.4504 61.5872 51.5111 61.5275 51.5793C61.4009 51.7387 61.3264 51.9132 61.3636 52.1408C61.3711 52.2546 61.4009 52.3684 61.4679 52.4216C61.8554 52.7782 61.9746 52.0649 62.0714 51.8449C62.0938 51.807 62.2205 51.6173 62.2503 51.7235C62.3173 51.8449 62.2056 51.9663 62.2503 52.1029C62.2875 52.3002 62.444 52.414 62.4812 52.5581C62.5036 52.6795 62.4514 52.7857 62.4589 52.8844C62.4887 53.0437 62.5483 53.1803 62.6004 53.3245C62.6153 53.4079 62.6377 53.5141 62.66 53.6128C62.6973 53.7493 62.8687 53.8404 62.9059 53.9921C62.9283 54.1667 62.6898 54.2729 62.6973 54.4474C62.7197 54.6219 62.9357 54.6826 62.9506 54.8875C62.9581 55.0847 62.6377 55.1227 62.7122 55.3275C62.7122 55.3579 62.742 55.3806 62.7942 55.3958C62.8389 55.3806 62.9208 55.3731 62.9804 55.3579C63.1294 55.3427 63.3232 55.4641 63.4126 55.6083C63.5541 55.8587 63.2859 55.9497 63.3232 56.1546C63.3232 56.1697 63.3306 56.1773 63.3306 56.2001C63.4126 56.3139 63.6063 56.3594 63.6733 56.4808C63.7478 56.625 63.7031 56.7995 63.7329 56.9436C63.7478 57.065 63.8149 57.1409 63.8745 57.2168C63.8969 57.2471 63.8969 57.2471 63.8969 57.2547C63.9043 57.2775 63.9043 57.2775 63.9043 57.2775C63.949 57.3534 64.0086 57.4368 64.0086 57.5431C64.0086 57.6645 63.9714 57.8162 64.0086 57.9452C64.0533 58.0969 64.1949 58.1576 64.2768 58.279C64.3439 58.3777 64.3811 58.5067 64.4258 58.6281C64.4929 58.8102 64.627 58.9923 64.4855 59.1895C64.4631 59.2275 64.4258 59.273 64.3811 59.2958C64.3066 59.3413 64.2247 59.2957 64.18 59.2275C64.0831 59.1137 63.9788 58.9847 63.8894 58.8633C63.8149 58.7419 63.8074 58.6356 63.7031 58.5446C63.6063 58.4308 63.4796 58.4308 63.353 58.3397C63.2561 58.2411 63.189 58.1197 63.0996 58.0211C62.9432 57.8541 62.6675 57.7327 62.6898 57.4368C62.6898 57.3382 62.9432 56.6174 62.7048 56.6477C62.6451 56.6629 62.5483 56.8147 62.5185 56.8678C62.5036 56.9512 62.4812 57.0271 62.4589 57.103C62.4142 57.3154 62.1981 57.7403 61.915 57.6265C61.8256 57.6113 61.7213 57.5582 61.6766 57.4748C61.4158 57.103 62.1236 57.0726 62.0863 56.8223C62.0491 56.587 61.5574 56.5643 61.5052 56.3139C61.4828 56.2684 61.5052 56.2228 61.5201 56.1849C61.5648 56.1242 61.6021 56.0863 61.6393 56.0407C61.7958 55.8207 61.4456 55.8587 61.4456 55.6462C61.4456 55.5627 61.453 55.4413 61.4828 55.3655C61.5424 55.2592 61.6095 55.2061 61.6393 55.0923C61.6468 55.0544 61.684 54.9178 61.6468 54.9178V54.9102C61.4828 54.9785 61.4307 55.1682 61.2966 55.282C61.2593 55.3351 61.2146 55.3579 61.1774 55.3806C61.088 55.4565 61.006 55.5627 60.8719 55.6159C60.7527 55.6538 60.6335 55.6841 60.5068 55.7145C60.3801 55.76 60.2535 55.8055 60.1417 55.76C60.0449 55.7069 59.9927 55.5552 59.9629 55.4565C59.8437 54.9861 60.5962 55.0164 60.559 54.7129C60.4845 54.6902 60.4398 54.6219 60.3727 54.6219C60.2833 54.6143 60.2162 54.6674 60.1343 54.6674C60.0374 54.7129 59.9182 54.6371 59.8512 54.5688C59.6872 54.4246 59.7468 53.977 59.6723 53.7569C59.5904 53.5217 59.4041 53.3472 59.2402 53.1727C59.188 53.1044 59.1433 53.0361 59.0986 52.9527C58.972 52.8161 58.8379 52.7023 58.7932 52.5278C58.7559 52.3988 58.7932 52.2394 58.8975 52.1863C58.9571 52.1408 59.2178 52.1181 59.1359 51.9891C59.1061 51.9435 59.0539 51.9284 59.0092 51.898C58.9347 51.8753 58.8975 51.8297 58.8304 51.8297C58.7187 51.8221 58.5771 51.8753 58.4877 51.8297C58.3759 51.769 58.3536 51.6325 58.2791 51.5414C58.1748 51.4428 58.063 51.4276 57.9661 51.3138C57.9065 51.2227 57.8246 51.1317 57.8097 51.0027C57.7575 50.7523 57.8097 50.3047 57.6383 50.1301C57.6011 50.077 57.5266 50.0239 57.4669 50.0163C57.2881 49.9556 57.005 50.0543 56.9007 49.8798C56.7889 49.6673 56.9156 49.4018 56.7964 49.1969C56.7442 49.0831 56.6474 48.992 56.5505 48.9162C56.4984 48.8782 56.4239 48.8706 56.3643 48.8251C56.1705 48.6658 56.096 48.4457 56.0066 48.2181C55.947 47.9829 56.178 47.7477 56.0513 47.5125C55.9694 47.3835 55.8204 47.3304 55.7011 47.2545C55.5372 47.1635 55.3212 47.0572 55.1871 46.9207C55.1423 46.8751 55.1349 46.8144 55.0827 46.7462C55.0604 46.7158 55.0306 46.6779 55.0008 46.6323C54.9486 46.5489 54.9337 46.3971 54.9337 46.3061C54.9561 46.1923 55.0604 46.1012 55.0008 45.9722C54.9337 45.8357 54.7624 45.7446 54.6432 45.6384C54.5463 45.517 54.5463 45.3349 54.4643 45.2287C54.3973 45.1376 54.3228 45.0693 54.2706 44.9783C54.1142 44.8341 53.9204 44.7355 53.8161 44.5534C53.7416 44.3941 53.8012 44.2347 53.7342 44.0981C53.6895 43.9843 53.5181 43.9388 53.466 43.8174C53.466 43.8022 53.4436 43.7947 53.4436 43.7795C53.4138 43.6505 53.5479 43.5443 53.466 43.3773C53.4212 43.2559 53.2871 43.2332 53.2275 43.1345C53.1605 43.0587 53.1456 42.96 53.1009 42.8766C53.0338 42.7324 52.8625 42.6489 52.8177 42.4896C52.773 42.4137 52.773 42.2544 52.8028 42.1709C52.8177 42.0951 52.8475 42.0571 52.8326 41.9737C52.8177 41.8067 52.6687 41.6853 52.6091 41.526C52.5868 41.4198 52.5644 41.3136 52.5346 41.2149C52.5123 41.0556 52.5123 40.919 52.4676 40.7749C52.244 40.3196 51.9237 39.9554 51.6629 39.5305C51.6033 39.4546 51.6033 39.3788 51.5735 39.2801C51.5511 39.1891 51.4841 39.098 51.4319 39.0298C51.3053 38.8704 51.1115 38.8628 51.037 38.7111C50.9551 38.5821 51.0221 38.4607 51.037 38.3469C51.0519 38.2331 51.0519 38.1117 51.0221 37.9903C50.9849 37.8613 50.8433 37.7551 50.7316 37.6716C50.7018 37.6337 50.6496 37.6185 50.6198 37.5654C50.59 37.5199 50.5751 37.4895 50.5751 37.4592C50.5453 37.2695 50.8284 37.1784 50.7539 36.9811C50.7316 36.8597 50.4782 36.8294 50.3888 36.7384C50.2622 36.6094 50.21 36.4273 50.1355 36.2679C50.0983 36.1845 50.0685 36.1162 50.0163 36.0403C49.9791 35.9113 49.9493 35.7368 49.9493 35.5851C49.9716 35.4106 50.0461 35.2133 49.9343 35.0539C49.8375 34.9174 49.7183 34.758 49.5469 34.7353C49.4799 34.7353 49.4128 34.7353 49.3457 34.7353C49.1297 34.7504 49.0477 34.7353 48.9062 34.5683C48.6305 34.2497 49.0924 33.7717 48.7124 33.5896C48.5113 33.5365 48.3027 33.4606 48.1015 33.4075C47.9376 33.3164 47.7811 33.2254 47.6321 33.1419C47.5054 33.0736 47.267 33.0205 47.1329 33.0053C46.9615 33.0053 46.8051 33.0888 46.6561 33.1495C46.5518 33.1799 46.3804 33.1799 46.2761 33.1799C46.0228 33.1799 45.9706 32.9446 45.6502 33.0433C45.4193 33.1116 45.3969 33.3771 45.2032 33.4378C45.0616 33.4985 44.9126 33.2709 44.7189 33.3468C44.5773 33.3847 44.5103 33.5365 44.406 33.6579C44.2868 33.7793 43.944 34.0069 43.7503 34.0448C43.6609 34.06 43.3405 34.0448 43.2362 34.0221C43.0052 33.9689 42.9531 33.8172 42.6476 33.9158C42.5433 33.9538 42.4092 34.0448 42.3421 34.1359C42.2453 34.2421 42.1782 34.3711 42.0367 34.4242C41.8877 34.4849 41.6716 34.4849 41.5151 34.4849C41.381 34.4621 41.2544 34.4469 41.1202 34.5152C41.0681 34.538 41.0085 34.5911 40.9489 34.6442C40.8446 34.7353 40.7701 34.9401 40.621 34.9857C40.405 35.016 40.2932 34.6139 40.0026 34.6442C39.8834 34.6746 39.7121 34.7049 39.6227 34.758C39.4885 34.8415 39.3917 34.9705 39.2427 35.0312C39.0862 35.0767 38.9595 34.9629 38.7807 35.0767C38.6541 35.1829 38.5721 35.4257 38.4529 35.4864C38.1847 35.6078 38.0506 35.4106 37.8271 35.4257C37.6035 35.4257 37.4322 35.6913 37.2757 35.8051C37.149 35.8961 37.0298 35.9568 36.9255 36.0631C36.7467 36.23 36.8585 36.5183 36.7765 36.7156C36.6275 37.0115 36.3667 37.2695 36.2624 37.5806C36.2252 37.6716 36.2624 37.7627 36.2699 37.8613C36.2624 37.9448 36.2475 38.0282 36.2475 38.1193C36.2177 38.2634 36.0613 38.3696 36.0314 38.529C36.024 38.6807 36.0762 38.8704 36.0762 39.0146C36.0762 39.1512 36.0165 39.2574 36.0091 39.3864C35.9942 39.4774 36.0314 39.5685 36.0314 39.6671V39.9175C36.0538 40.0996 36.1432 40.2665 36.1432 40.4486C36.1283 40.79 35.6664 40.8659 35.6813 41.1922C35.6813 41.3743 35.7781 41.4881 35.8303 41.6398C35.875 41.7764 35.9271 42.262 35.9048 42.3834C35.8824 42.5275 35.7632 42.6414 35.7483 42.7779C35.726 42.9524 35.8526 43.0738 35.7781 43.2408C35.7185 43.4229 35.5472 43.5139 35.495 43.7188C35.4503 43.8781 35.5099 44.0754 35.4652 44.2347C35.4428 44.2802 35.4205 44.3258 35.3907 44.3637C35.346 44.5003 35.3013 44.6217 35.2268 44.7431C35.1821 44.8114 35.1225 44.9024 35.0778 44.9631C34.9958 45.0845 34.9586 45.2666 34.9139 45.4108C34.8915 45.5018 34.8617 45.5701 34.8393 45.6612C34.817 45.9419 34.817 46.0026 35.048 46.1543C35.1076 46.1847 35.1448 46.215 35.1672 46.2682C35.2268 46.4427 35.0778 46.5337 35.1076 46.6855C35.1225 46.7765 35.197 46.822 35.2342 46.8676C35.3013 46.9814 35.346 47.1559 35.346 47.2849C35.3609 47.596 35.3236 47.9298 35.1448 48.2029C35.0778 48.3168 34.8691 48.4306 34.8468 48.5671C34.8393 48.7644 35.0629 48.8479 35.0629 49.0679C35.0629 49.1817 35.0182 49.3866 34.966 49.4928C34.9138 49.6066 34.8319 49.6977 34.8095 49.8267C34.7872 49.9784 34.8691 50.0998 34.8617 50.2667C34.8393 50.4488 34.735 50.5778 34.7052 50.7523C34.6829 50.8965 34.7201 51.0786 34.7052 51.2303C34.6829 51.3593 34.5637 51.4352 34.5041 51.549C34.4743 51.6325 34.437 51.7083 34.4147 51.7918C34.3252 51.9967 34.2433 52.1863 34.1986 52.3836C34.1315 52.6188 34.2433 52.8768 34.2433 53.1272C34.2433 53.2638 34.1315 53.499 34.0794 53.6507C34.0719 53.7266 34.057 53.7949 34.0496 53.8783C33.9825 54.1439 33.6994 54.197 33.6547 54.4853C33.5429 55.1303 34.2656 54.7281 34.2656 55.1303C34.2656 55.2744 34.2358 55.4262 34.1986 55.5324C34.1613 55.6159 34.1166 55.6917 34.0645 55.7904C34.0198 55.9269 33.9825 56.0863 33.9602 56.2532V56.5795C33.9602 56.6781 33.8931 56.7691 33.8931 56.8754C33.8782 56.9816 33.908 57.1333 34.0049 57.2016C34.0496 57.2472 34.1166 57.2699 34.139 57.3306C34.206 57.5431 34.0719 57.7327 34.057 57.9224V58.2411C34.0198 58.3853 33.9155 58.5294 33.8186 58.6053C33.7366 58.6963 33.6323 58.7267 33.6025 58.8329C33.528 59.0757 33.7516 59.2351 33.7516 59.4703C33.7516 59.6144 33.7516 59.7662 33.7143 59.9103C33.6919 60.0014 33.6174 60.0621 33.6249 60.1759V60.2214C33.6696 60.3732 33.9006 60.2973 33.9527 60.5325C33.99 60.6918 33.9155 61.0029 33.8335 61.1319C33.7516 61.2988 33.6398 61.4354 33.6621 61.6479C33.6919 61.9134 33.9155 61.8982 34.0794 62.0424C34.1613 62.1031 34.2135 62.2093 34.2284 62.308C34.2731 62.4976 34.1315 62.6949 34.0049 62.786C33.9155 62.8543 33.759 62.8922 33.7217 63.0288C33.6398 63.264 33.908 63.2791 33.9602 63.4309C33.9974 63.5675 33.8857 63.6737 33.841 63.7875C33.759 63.9848 33.6994 64.22 33.5802 64.3793C33.4386 64.5538 33.2673 64.44 33.1257 64.3566C33.0139 64.2807 32.9096 64.2655 32.8947 64.1062C32.8798 63.9165 33.1257 63.8179 33.2002 63.6433C33.2673 63.5295 33.23 63.4005 33.2449 63.2564C33.2673 63.0667 33.3939 62.5811 33.1778 62.4597C33.0512 62.3762 32.8947 62.4066 32.7606 62.3155C32.6489 62.2321 32.6042 62.1107 32.4775 62.05C32.4626 62.0424 32.403 62.05 32.3881 62.0652C32.321 62.141 32.2614 62.2397 32.2763 62.3383C32.2763 62.3535 32.2763 62.3762 32.2763 62.3762C32.2987 62.4521 32.3583 62.4673 32.3881 62.5204C32.4849 62.6494 32.5147 62.9832 32.3881 63.0895C32.3583 63.1426 32.2763 63.1577 32.2316 63.135C31.9783 63.0363 32.0677 62.6494 31.9634 62.4597C31.8367 62.2321 31.6132 62.1562 31.6207 61.83C31.6207 61.7161 31.6803 61.5796 31.7175 61.4733C31.725 61.3671 31.7399 61.2685 31.7548 61.1698C31.792 61.0105 31.8591 60.8815 31.7771 60.7146C31.7175 60.5932 31.5387 60.3883 31.3971 60.4187C31.3226 60.4263 31.2481 60.4794 31.1736 60.5173C31.114 60.5477 31.0395 60.578 31.0023 60.6311C30.9576 60.7298 31.0097 60.9043 30.9799 61.0105C30.9725 61.056 30.8383 61.1926 30.8383 61.2078C30.5999 61.1319 30.4211 60.8967 30.5403 60.6311C30.5776 60.5704 30.5999 60.5249 30.6521 60.4946C30.7638 60.449 30.8309 60.5401 30.9278 60.5325V60.5097C30.9725 60.3883 30.9501 60.2821 31.0023 60.1759C31.0842 59.9938 31.2407 59.9027 31.345 59.7358C31.4195 59.6372 31.5387 59.2654 31.6281 59.2502H31.6877C31.8367 59.2654 31.7771 60.0621 32.105 59.9483C32.1795 59.9179 32.3806 59.8041 32.4328 59.7434C32.634 59.4854 32.403 59.1364 32.2093 58.9695C32.0975 58.8709 31.9559 58.8253 31.8367 58.7343C31.7101 58.6205 31.6654 58.4232 31.5015 58.3549C31.2854 58.2639 31.0619 58.4535 30.9799 58.6432C30.9352 58.7874 30.9129 58.924 30.8533 59.0605C30.8309 59.1592 30.6744 59.3944 30.5478 59.2047C30.4509 59.0302 30.5031 58.7874 30.4509 58.5749C30.4211 58.4232 30.3243 58.3321 30.3243 58.1576C30.3168 58.0059 30.3839 57.8997 30.369 57.7479C30.3466 57.5734 30.2796 57.4217 30.2796 57.2396C30.2796 57.103 30.3913 57.0195 30.369 56.883C30.3466 56.6629 30.1678 56.5491 30.1231 56.3367C30.1156 56.2684 30.1156 56.2001 30.1156 56.1394C30.1156 55.9649 30.1156 55.7752 30.0709 55.5931C30.0337 55.4186 30.0039 55.2365 29.9666 55.0468C29.9741 54.9254 30.0262 54.8192 30.0486 54.7054C30.0709 54.5536 30.0113 54.2653 30.0933 54.1439C30.1901 54.0301 30.3541 54.0453 30.4733 54.106C30.5627 54.1439 30.6148 54.2425 30.734 54.2349C30.7787 54.1363 30.8309 54.0453 30.9054 53.9618C30.9725 53.8935 31.1215 53.848 31.1438 53.7342C31.1885 53.5141 30.8309 53.1196 30.734 52.9678C30.667 52.8237 30.6446 52.6719 30.5329 52.5505C30.4211 52.414 30.1305 52.5126 30.138 52.2091C30.138 52.027 30.287 51.9132 30.287 51.7387C30.287 51.5869 30.1976 51.4883 30.1752 51.3745C30.1082 51.162 30.1752 50.8737 30.205 50.684C30.2721 50.5702 30.3317 50.4716 30.3839 50.3426C30.4286 50.2667 30.4509 50.1605 30.4882 50.077C30.4956 50.0163 30.5254 49.9632 30.5478 49.8949C30.5999 49.7432 30.7042 49.5687 30.7266 49.3866C30.7415 49.2652 30.667 49.0831 30.5627 49.0376C30.4286 48.9769 30.2199 48.992 30.2199 48.7796C30.2348 48.5368 30.6297 48.3395 30.7042 48.1195C30.8011 47.8312 30.5776 47.778 30.5478 47.5808C30.5031 47.4594 30.585 47.3456 30.585 47.2242C30.585 47.1028 30.5254 46.989 30.5478 46.8676C30.5701 46.6172 30.9203 46.6703 30.9874 46.4351C31.0321 46.2833 30.9576 46.0785 30.9203 45.9343C30.9129 45.8205 30.898 45.6991 30.8756 45.5853C30.8383 45.4487 30.7936 45.3197 30.7638 45.1756C30.7191 45.0997 30.6968 45.0238 30.6819 44.9403C30.6074 44.8114 30.3839 44.6976 30.3615 44.5534C30.3541 44.432 30.436 44.3789 30.5403 44.3637C30.6223 44.3106 30.6968 44.3106 30.7787 44.2423C30.9278 44.1209 31.0842 43.567 31.0842 43.3698C31.0842 43.1952 31.0246 43.0359 30.9799 42.8917C30.9501 42.8235 30.9278 42.7552 30.8905 42.6869C30.8309 42.4213 31.0246 42.2696 31.2705 42.2392C31.5611 42.0495 31.6207 42.6338 31.9336 42.6034C32.0156 42.6034 32.0677 42.5655 32.1199 42.5124C32.2763 42.3227 32.0603 41.9357 32.0603 41.7005C32.0603 41.5867 32.1571 41.4653 32.0826 41.3515C32.0677 41.3136 32.0454 41.2756 31.9932 41.2756C31.7548 41.2073 31.7771 41.4805 31.7175 41.6246C31.6058 41.8599 31.3226 41.8978 31.0917 41.8295C30.8309 41.7688 30.7862 41.5108 30.8905 41.2908C30.9129 41.2073 30.9501 41.1466 31.0246 41.1011C31.1811 41.0177 31.2556 41.1239 31.3971 41.1011V41.0784C31.6132 40.9342 31.6877 40.6155 31.5685 40.3651C31.5164 40.2589 31.3971 40.1603 31.3971 40.0389C31.4568 39.9706 31.5089 39.9251 31.6132 39.9251C31.7622 39.9478 31.8069 40.1754 32.0156 40.0616C32.0603 40.0161 32.0975 39.9706 32.1124 39.9251V39.9175C32.1571 39.6974 32.0677 39.4774 32.0752 39.265C32.0826 39.0753 32.2763 38.8932 32.1571 38.6883C32.023 38.4455 31.6132 38.4759 31.6132 38.1496C31.5909 37.9523 31.7846 37.8082 31.9038 37.6868C31.9634 37.6109 32.0454 37.5199 32.105 37.4288C32.2018 37.3529 32.3508 37.2315 32.3583 37.1101C32.47 36.7004 31.9857 36.5259 31.7548 36.3135C31.643 36.2224 31.5909 36.0782 31.4791 35.9872C31.3152 35.8127 31.0693 35.6989 30.9352 35.5016C30.9129 35.4409 30.8682 35.3802 30.8533 35.3347C30.8309 35.2816 30.7936 35.2588 30.7564 35.2588C30.6297 35.2512 30.5478 35.3954 30.4435 35.4333C30.3168 35.494 30.1678 35.5016 30.0933 35.6534C30.0784 35.6989 30.0933 35.752 30.1156 35.7823C30.1976 35.8961 30.2945 35.9872 30.3839 36.101C30.4584 36.1921 30.4956 36.3514 30.585 36.4121C30.6372 36.4728 30.6893 36.4728 30.7564 36.4576C30.816 36.4121 30.9129 36.4349 30.9799 36.4349C31.1587 36.4349 31.3524 36.4728 31.3971 36.6701C31.4195 36.7308 31.412 36.7839 31.3822 36.8218C31.3524 36.8749 31.1215 37.0494 31.0544 37.0722C30.6819 37.2012 30.6372 36.9356 30.4435 36.7459C30.3839 36.6701 30.205 36.7384 30.1231 36.7308C29.9592 36.6928 29.7133 36.4576 29.6686 36.2831C29.6462 36.1996 29.676 36.1389 29.7133 36.0631C29.7655 35.9493 29.9964 35.7444 29.9517 35.6154C29.9443 35.5471 29.8325 35.4409 29.8325 35.4333C29.7655 35.4713 29.6909 35.5016 29.6164 35.5547C29.5047 35.6002 29.3482 35.6154 29.229 35.6154C29.0204 35.623 28.9384 35.3347 28.7149 35.5623C28.6702 35.6154 28.6181 35.6913 28.5883 35.752C28.5212 35.9417 28.7 36.1845 28.8565 36.2452C28.931 36.2755 29.0055 36.2831 29.08 36.2907C29.2812 36.3438 29.3631 36.5411 29.3184 36.7459C29.2961 36.8066 29.2588 36.9204 29.1843 36.9356C29.0204 37.0267 28.8416 36.8598 28.7 36.8142C28.6404 36.7839 28.5585 36.799 28.5212 36.7535C28.4243 36.6852 28.4243 36.5638 28.32 36.5107C28.2381 36.4652 28.1338 36.5335 28.022 36.5487V36.4956H28.0071C27.9848 36.3666 27.9102 36.3135 27.8655 36.2072C27.8134 36.101 27.7687 35.9872 27.7389 35.881C27.7165 35.7444 27.7165 35.6002 27.7389 35.4788C27.7612 35.3802 27.8134 35.3195 27.8208 35.2209C27.8581 35.0084 27.7389 34.5835 28.0593 34.5304C28.1487 34.5152 28.2455 34.5077 28.3349 34.5001C28.4169 34.4318 28.5212 34.4318 28.6181 34.4242C28.6926 34.3483 29.0949 34.1814 29.1322 34.3559C29.1843 34.4925 29.08 34.6139 29.0874 34.7277C29.0874 34.7808 29.1023 34.8111 29.1247 34.8491C29.1843 34.9401 29.527 35.1678 29.609 35.1829C29.8251 35.1981 29.7878 34.7353 29.8474 34.6063C29.8847 34.5076 30.0113 34.3483 30.1082 34.318C30.1678 34.2952 30.205 34.318 30.2572 34.3331C30.3466 34.3559 30.4435 34.3787 30.5105 34.4318C30.6521 34.538 30.7862 34.7429 30.965 34.7049C31.0395 34.5835 31.1215 34.4925 31.1438 34.318C31.1885 34.06 30.9948 33.8096 31.2183 33.6123C31.2854 33.5365 31.3673 33.5213 31.4642 33.5365C31.5387 33.5516 31.6132 33.5896 31.6952 33.6351C31.792 33.7034 31.8814 33.9082 32.023 33.8855C32.0603 33.8324 32.0826 33.7717 32.1199 33.7034C32.1646 33.6351 32.1646 33.5592 32.2242 33.5061C32.2912 33.4226 32.4551 33.4682 32.5445 33.4075C32.7159 33.3088 32.7383 33.1192 32.8277 32.9674C32.9096 32.8384 33.0661 32.7625 33.1108 32.6108C33.1555 32.497 33.1331 32.368 33.1555 32.2314C33.2002 32.0266 33.2971 31.8217 33.3716 31.6093C33.3716 31.5182 33.3939 31.4272 33.3939 31.3285C33.4386 31.2071 33.5802 31.0857 33.5578 30.9567C33.5504 30.7898 33.2747 30.7215 33.3194 30.5394C33.3418 30.3877 33.5057 30.2966 33.5951 30.198C33.7143 30.0538 33.7441 29.8717 33.8037 29.6972C33.8335 29.5986 33.8857 29.5227 33.8857 29.4165C33.8857 29.2647 33.8484 29.113 33.7441 28.9992C33.5951 28.8474 33.4386 28.8171 33.4684 28.506C33.4833 28.3922 33.5653 28.3239 33.5802 28.2177C33.6174 28.0583 33.5057 27.8383 33.6249 27.7093C33.7366 27.5652 33.9751 27.5727 34.0347 27.3603C34.1017 27.0492 33.8112 26.7381 33.8335 26.4119C33.8484 26.2449 33.9006 26.1008 33.99 25.9566C34.0496 25.8656 34.1017 25.7897 34.1017 25.6911C34.1241 25.3876 33.7963 25.2586 33.8782 24.9247C33.8782 24.8413 33.9676 24.6668 34.0272 24.6061C34.1017 24.4998 34.2135 24.4771 34.2358 24.3253C34.2433 24.257 34.2135 24.2115 34.1911 24.1736C34.0943 24.0142 33.9378 23.8246 33.9527 23.5969C33.9825 23.3238 34.206 23.1796 34.4668 23.2479C34.5413 23.2707 34.6009 23.339 34.6978 23.3238C34.8021 23.301 34.884 23.1872 34.9288 23.0886C35.048 22.8685 34.8989 22.5878 34.9064 22.345C34.9213 22.2084 35.0182 22.1022 35.0927 21.9884C35.1895 21.8291 35.2715 21.6014 35.2715 21.4042C35.2715 21.2069 35.1076 21.0779 35.0405 20.9262C34.9437 20.7517 34.9213 20.4861 34.884 20.2888C34.8542 20.0384 34.8766 19.7805 34.884 19.5377C34.884 19.2949 34.8766 19.0521 34.9064 18.8245C34.9437 18.7562 34.9511 18.7031 34.9735 18.6424C34.9884 18.5285 35.0182 18.4299 35.0331 18.3161C35.0405 18.2099 35.0405 18.0961 35.0405 17.9747C35.0629 17.8001 35.0852 17.6332 35.115 17.4663C35.1299 17.2918 35.264 17.178 35.2864 16.9959C35.3013 16.8214 35.2417 16.6317 35.2417 16.4496C35.2417 16.3585 35.2491 16.2751 35.2864 16.184C35.3013 16.1309 35.3311 16.0778 35.3534 16.0171C35.3832 15.8426 35.3832 15.6908 35.4354 15.5163C35.4577 15.4405 35.5099 15.3494 35.5993 15.2963C35.7334 15.2128 35.9346 15.266 35.9644 15.0763C36.0538 14.5831 35.4726 14.8031 35.3385 14.4996C35.264 14.3479 35.3385 14.1734 35.4577 14.0596C35.5025 14.0216 35.5546 14.0216 35.6068 13.9533C35.644 13.885 35.6738 13.8016 35.6813 13.7181C35.7036 13.407 35.2938 13.3312 35.2193 13.1035C35.197 13.0428 35.2044 12.9897 35.2193 12.9442C35.2789 12.709 35.5323 12.7849 35.7409 12.7545C35.7781 12.7242 35.8079 12.6786 35.8452 12.6407C35.942 12.4814 35.9867 12.1855 35.726 12.1551C35.644 12.1399 35.5695 12.1855 35.4875 12.2082C35.2119 12.231 35.0331 12.0716 35.0927 11.7833C35.1076 11.753 35.1076 11.7378 35.1076 11.6999C35.1448 11.6468 35.1821 11.6392 35.2268 11.6088C35.2789 11.5557 35.3609 11.5329 35.4279 11.5329C35.5546 11.5329 35.6738 11.6316 35.793 11.5329C35.8377 11.5026 35.8452 11.4571 35.8601 11.4115C35.875 11.2674 35.8303 11.1232 35.875 10.9942C35.8973 10.9411 35.9569 10.888 36.0016 10.8425C36.0836 10.7666 36.2103 10.63 36.255 10.5086C36.2699 10.4631 36.2773 10.4479 36.2922 10.3948C36.2922 10.2886 36.2773 10.0003 36.1432 9.98511C36.0985 9.98511 36.0463 9.99269 36.0091 9.99269C35.8899 10.0003 35.8303 9.93958 35.7632 9.87888C35.7632 9.86371 35.7632 9.86371 35.7632 9.86371L35.7483 9.84094C35.6664 9.71196 35.7036 9.54504 35.6366 9.39329C35.5397 9.15049 35.2938 9.05185 35.2938 8.75594V8.74077C35.2938 8.62696 35.3311 8.51315 35.3758 8.41451C35.5919 8.01996 35.9569 8.41451 36.2699 8.33105C36.3444 8.32346 36.3891 8.27035 36.4114 8.21724C36.4412 8.12619 36.3891 7.78475 36.3369 7.6937C36.2773 7.56472 36.1805 7.48884 36.1507 7.31433C36.1358 7.2157 36.1507 7.05636 36.1954 6.95772C36.2401 6.86667 36.3518 6.7908 36.3444 6.67699C36.3444 6.47213 36.1209 6.35832 36.1283 6.11552C36.1283 6.03965 36.1209 5.91825 36.1507 5.84237C36.2401 5.74374 36.3742 5.7665 36.5008 5.74374C36.6797 5.69821 36.8659 5.47818 36.8883 5.29608C36.933 4.85601 36.3444 5.22779 36.2997 4.97741L36.2848 4.96982C36.2699 4.78772 36.5232 4.7422 36.5977 4.63597C36.6424 4.56769 36.6424 4.4994 36.6573 4.41594C36.6946 4.30213 36.7393 4.22625 36.7542 4.11244C36.8212 3.97587 36.9553 3.93793 37.0298 3.83171C37.2161 3.72548 37.2459 3.55097 37.3726 3.4144Z" fill="#ED1C24"/>
<path d="M91.4117 48.1801L91.4564 47.5958C91.4638 47.5048 91.434 47.4213 91.3744 47.353C91.3148 47.2847 91.2329 47.2544 91.1434 47.2544H81.2713C81.1745 47.2544 81.0925 47.2999 81.0255 47.3758C80.9584 47.4517 80.9435 47.5503 80.9584 47.6565C80.9733 47.7021 80.9808 47.7552 80.9957 47.8083L81.018 47.9297C81.0404 48.0056 81.0404 48.0966 81.0404 48.1649C81.0404 48.2559 81.0404 48.3394 81.018 48.4153L80.9659 48.6884C80.951 48.7871 80.9733 48.8857 81.0478 48.9616C81.1149 49.0299 81.249 49.0678 81.3086 49.0678C82.2772 48.9616 82.9701 48.9009 83.3873 48.8781C83.73 48.8478 84.2963 48.8402 85.1755 48.8402V60.9725C85.1755 61.0711 85.2127 61.1621 85.2798 61.2152C85.3468 61.2684 85.4139 61.2987 85.4884 61.2987C85.4884 61.2987 85.5182 61.2987 85.5331 61.2835L85.9056 61.238C86.1664 61.2001 86.4868 61.2001 86.7252 61.2228C86.8593 61.2304 86.9934 61.2456 87.135 61.2608C87.2319 61.276 87.3064 61.2456 87.3809 61.1925C87.4479 61.1242 87.4852 61.0407 87.4852 60.9497V48.8174C88.1259 48.8174 88.7592 48.8478 89.3553 48.8857C90.0929 48.9312 90.6517 48.9843 91.1136 49.045C91.1211 49.0526 91.1434 49.0526 91.1434 49.0526H91.1658H91.1732C91.3446 49.0526 91.4862 48.9085 91.4862 48.7339C91.4862 48.6884 91.4713 48.6505 91.4638 48.6125L91.4117 48.1801Z" fill="white"/>
<path d="M96.724 51.1392C95.3829 51.1392 94.2579 51.6172 93.3787 52.558C92.4995 53.4913 92.0674 54.7128 92.0674 56.1696V56.6021C92.0674 58.0134 92.507 59.1894 93.3638 60.0923C94.1759 60.9497 95.219 61.3898 96.4409 61.3898C97.8789 61.3898 99.0486 60.8511 99.9055 59.7812C100.673 58.8025 101.06 57.6112 101.06 56.2227C101.06 54.7204 100.658 53.4837 99.8757 52.5656C99.071 51.6172 98.013 51.1392 96.724 51.1392ZM94.1834 56.4276C94.1834 55.2895 94.3771 54.3411 94.7571 53.6354C95.1967 52.8008 95.83 52.3911 96.6868 52.3911C97.4691 52.3911 98.013 52.7705 98.4153 53.5899C98.7357 54.2728 98.8996 55.1226 98.8996 56.1241C98.8996 57.0649 98.7208 57.9451 98.3557 58.7342C97.9236 59.6674 97.3499 60.1227 96.5825 60.1227C95.7778 60.1227 95.1743 59.7509 94.7422 58.9997C94.3696 58.3548 94.1834 57.4822 94.1834 56.4276Z" fill="white"/>
<path d="M110.448 59.8192L109.882 59.8951C109.808 59.8951 109.77 59.8799 109.77 59.8799C109.748 59.8571 109.711 59.7509 109.711 59.4778V54.7129C109.711 52.3683 108.526 51.1316 106.298 51.1316C105.695 51.1316 105.114 51.2302 104.577 51.4427C104.078 51.6248 103.564 51.8979 103.02 52.2697C102.931 52.3304 102.886 52.429 102.886 52.5353V53.6203C102.886 53.7948 103.02 53.9389 103.191 53.9389H103.43C103.579 53.9389 103.705 53.8403 103.735 53.6961C103.787 53.4609 103.966 53.2409 104.257 53.0284C104.652 52.725 105.136 52.5732 105.68 52.5732C106.343 52.5732 106.82 52.7477 107.148 53.0816C107.461 53.423 107.632 53.9162 107.632 54.5535C107.632 54.9405 107.468 55.1605 107.103 55.2819C106.887 55.3502 106.328 55.4412 105.866 55.5171C104.309 55.7903 103.311 56.1545 102.819 56.6249C102.305 57.1181 102.044 57.7934 102.044 58.6431C102.044 59.455 102.327 60.1227 102.893 60.6235C103.452 61.1242 104.123 61.367 104.912 61.367C105.948 61.367 106.887 61.0028 107.706 60.2593C107.796 60.4717 107.93 60.6614 108.094 60.798C108.377 61.0256 108.735 61.1394 109.211 61.1394H109.219L109.934 61.0559C110.165 61.018 110.389 60.9421 110.605 60.8283C110.709 60.7828 110.784 60.669 110.784 60.54V60.1151C110.784 60.0165 110.746 59.933 110.679 59.8723C110.62 59.842 110.538 59.8192 110.448 59.8192ZM107.572 58.8252C107.55 58.8556 107.513 58.8859 107.453 58.9466C107.356 59.0604 107.252 59.1439 107.11 59.2653C106.961 59.4398 106.76 59.5916 106.514 59.7206C106.268 59.842 106.037 59.8951 105.821 59.8951C105.307 59.8951 104.905 59.7737 104.644 59.5233C104.391 59.2805 104.257 58.9087 104.257 58.3852C104.257 57.7402 104.562 57.3078 105.21 57.0118C105.397 56.9208 105.896 56.7615 107.23 56.4883L107.572 56.42V58.8252Z" fill="white"/>
<path d="M105.375 50.8053C105.434 50.8053 105.486 50.7901 105.539 50.7598L108.608 48.8174C108.638 48.7946 108.698 48.7567 108.772 48.6884L108.847 48.6429C108.966 48.5367 109.055 48.438 109.107 48.3318C109.219 48.1876 109.227 48.0359 109.227 47.8917L109.189 47.5199C109.063 47.1026 108.735 46.8674 108.303 46.8674H108.161C108.102 46.8674 107.982 46.9281 107.93 46.9661C107.751 47.0723 107.58 47.1937 107.379 47.353L104.503 50.2742C104.413 50.3652 104.384 50.4942 104.436 50.6156C104.481 50.737 104.592 50.8129 104.719 50.8129H105.375V50.8053Z" fill="white"/>
<path d="M118.122 51.1392C117.392 51.1392 116.744 51.3213 116.17 51.6855C115.879 51.8676 115.618 52.1028 115.373 52.3607V51.5716C115.373 51.4806 115.335 51.3895 115.268 51.3364C115.201 51.2681 115.104 51.2454 115.022 51.2606L114.277 51.3364C114.143 51.3364 114.046 51.3288 113.979 51.3213C113.905 51.2985 113.763 51.2833 113.562 51.253C113.435 51.253 113.383 51.2757 113.316 51.3288C113.249 51.3895 113.212 51.4806 113.212 51.5641V60.9269C113.212 61.018 113.257 61.1166 113.331 61.1697C113.406 61.2304 113.495 61.2608 113.592 61.238C113.786 61.1925 113.92 61.1697 114.002 61.1621C114.069 61.147 114.173 61.147 114.248 61.147L115.022 61.2228C115.104 61.2228 115.201 61.2001 115.268 61.1394C115.335 61.0787 115.373 61.0028 115.373 60.9042V56.3517C115.373 55.1074 115.522 54.1969 115.827 53.6658C116.147 53.0739 116.706 52.7856 117.533 52.7856C118.256 52.7856 118.748 53.0436 119.009 53.5671C119.24 53.9844 119.351 54.6901 119.351 55.6916V60.9269C119.351 61.018 119.396 61.1166 119.47 61.1697C119.523 61.2152 119.59 61.238 119.657 61.238C119.687 61.238 119.701 61.238 119.731 61.238C119.918 61.1925 120.059 61.1697 120.148 61.1621C120.216 61.147 120.312 61.147 120.409 61.147L121.162 61.2228C121.251 61.2228 121.341 61.2001 121.4 61.1394C121.467 61.0863 121.505 61.0028 121.505 60.9042V55.2591C121.505 53.863 121.251 52.8463 120.707 52.1786C120.186 51.4958 119.307 51.1392 118.122 51.1392Z" fill="white"/>
<path d="M139.066 48.1801L139.11 47.5958C139.118 47.5048 139.088 47.4213 139.028 47.353C138.969 47.2847 138.879 47.2544 138.797 47.2544H128.933C128.843 47.2544 128.754 47.3151 128.702 47.391C128.642 47.4593 128.62 47.5655 128.627 47.6565C128.642 47.7324 128.657 47.831 128.672 47.9069C128.687 47.998 128.702 48.0814 128.702 48.1573C128.702 48.2483 128.687 48.3242 128.687 48.3697C128.65 48.4684 128.635 48.5898 128.612 48.696C128.605 48.7946 128.635 48.8933 128.702 48.9616C128.769 49.0298 128.858 49.0526 128.955 49.0526C129.939 48.9464 130.617 48.8857 131.041 48.8629C131.384 48.8326 131.928 48.825 132.815 48.825V60.9573C132.815 61.0483 132.852 61.1318 132.919 61.2001C132.986 61.2456 133.053 61.2835 133.128 61.2835H133.165L133.545 61.2304C133.858 61.1849 134.148 61.1925 134.379 61.2152C134.506 61.2228 134.633 61.238 134.789 61.2532C134.886 61.2684 134.968 61.238 135.027 61.1849C135.095 61.1166 135.132 61.0331 135.132 60.9421V48.8174C135.773 48.8174 136.398 48.8478 136.994 48.8857C137.747 48.9312 138.298 48.9843 138.745 49.045C138.753 49.0526 138.775 49.0526 138.775 49.0526H138.79H138.805C138.976 49.0526 139.118 48.9085 139.118 48.7339C139.118 48.6884 139.103 48.6505 139.088 48.6125L139.066 48.1801Z" fill="#ED1C24"/>
<path d="M149.624 49.0374L148.417 49.045L147.851 48.9539C147.754 48.9312 147.672 48.9691 147.605 49.0298C147.538 49.0905 147.501 49.1816 147.501 49.2726V50.4411C147.501 50.8053 147.91 50.8204 148.097 50.8356C148.216 50.8508 148.246 50.8584 148.238 50.866C148.26 50.8887 148.305 50.9874 148.305 51.1922C148.305 51.2909 148.283 51.3895 148.246 51.4578C148.231 51.4047 148.208 51.3743 148.171 51.3364C148.104 51.2681 148.015 51.2453 147.933 51.2605L147.195 51.3364C147.053 51.3364 146.957 51.3288 146.897 51.3212C146.83 51.2985 146.688 51.2833 146.472 51.2529C146.353 51.2529 146.294 51.2757 146.226 51.3288C146.159 51.3895 146.115 51.4805 146.115 51.564V56.9359C146.115 57.7705 145.981 58.4003 145.697 58.8783C145.362 59.4701 144.833 59.766 144.066 59.766C143.336 59.766 142.829 59.546 142.546 59.0907C142.24 58.5975 142.084 57.8236 142.084 56.8221V51.564C142.084 51.473 142.047 51.3819 141.98 51.3288C141.913 51.2605 141.831 51.2378 141.741 51.2529L141.004 51.3288C140.862 51.3288 140.758 51.3212 140.706 51.3136C140.616 51.2909 140.482 51.2757 140.281 51.2453C140.162 51.2453 140.102 51.2681 140.035 51.3212C139.968 51.3819 139.931 51.473 139.931 51.5564V57.2773C139.931 58.6582 140.214 59.6901 140.78 60.3654C141.354 61.0407 142.225 61.3745 143.38 61.3745C144.528 61.3745 145.444 60.9876 146.115 60.2288V60.9041C146.115 61.0028 146.159 61.0862 146.226 61.1469C146.301 61.2076 146.39 61.2304 146.487 61.2152C146.681 61.1773 146.808 61.1621 146.897 61.1545C146.979 61.1393 147.068 61.1393 147.165 61.1393L147.933 61.2152C148.015 61.2152 148.104 61.1924 148.171 61.1317C148.238 61.0786 148.275 60.9952 148.275 60.8965V52.8615C148.454 52.8235 148.603 52.7856 148.737 52.7249C148.953 52.6263 149.14 52.4745 149.348 52.2545C149.579 51.9813 149.736 51.6854 149.81 51.3592C149.855 51.1391 149.922 50.7977 149.922 50.4107V49.6975L149.944 49.3864C149.952 49.303 149.922 49.2119 149.862 49.1512C149.803 49.0753 149.713 49.0374 149.624 49.0374Z" fill="#ED1C24"/>
<path d="M166.73 48.4836C166.097 47.9525 165.397 47.6034 164.585 47.4289C164.033 47.2999 163.273 47.2468 162.327 47.2468H156.657C156.486 47.2468 156.352 47.3986 156.352 47.5655V60.8359C156.352 61.0104 156.486 61.1621 156.657 61.1621H160.412C162.126 61.1621 163.37 61.0332 164.212 60.7752C165.076 60.5172 165.806 60.1227 166.388 59.5991C167.2 58.8632 167.811 58.0437 168.198 57.1636C168.675 56.1545 168.898 54.9556 168.898 53.5975C168.898 52.6339 168.72 51.6779 168.362 50.7674C167.997 49.8569 167.446 49.083 166.73 48.4836ZM160.755 59.7812C160.457 59.7812 160.032 59.7585 159.526 59.7129C159.168 59.675 158.877 59.6447 158.654 59.6371V48.6581C158.81 48.6505 159.026 48.6429 159.302 48.6277H159.436C160.062 48.605 160.509 48.5822 160.755 48.5822C162.804 48.5822 164.286 48.9843 165.136 49.781C165.985 50.5853 166.41 51.9662 166.41 53.9086C166.41 55.1377 166.216 56.2076 165.821 57.0649C165.389 58.0361 164.734 58.7266 163.825 59.1818C163.392 59.3867 162.93 59.5536 162.431 59.6371C161.932 59.7357 161.373 59.7812 160.755 59.7812Z" fill="#ED1C24"/>
<path d="M178.397 51.2605L177.66 51.3364C177.511 51.3364 177.414 51.3288 177.362 51.3212C177.295 51.2985 177.161 51.2833 176.937 51.2529C176.796 51.2529 176.758 51.2757 176.684 51.3288C176.617 51.3895 176.58 51.4806 176.58 51.564V56.9359C176.58 57.7554 176.438 58.4003 176.17 58.8783C175.827 59.4777 175.298 59.7736 174.531 59.7736C173.8 59.7736 173.294 59.5536 173.011 59.0983C172.705 58.6051 172.549 57.8312 172.549 56.8297V51.5716C172.549 51.4806 172.511 51.3895 172.444 51.3364C172.377 51.2681 172.295 51.2453 172.206 51.2605L171.468 51.3364C171.334 51.3364 171.23 51.3288 171.17 51.3212C171.081 51.2985 170.939 51.2833 170.746 51.2529C170.626 51.2529 170.567 51.2757 170.5 51.3288C170.433 51.3895 170.396 51.4806 170.396 51.564V57.2849C170.396 58.6658 170.679 59.6977 171.245 60.373C171.819 61.0483 172.69 61.3821 173.845 61.3821C175 61.3821 175.909 60.9952 176.587 60.2364V60.9117C176.587 61.0104 176.632 61.0938 176.699 61.1545C176.766 61.2152 176.863 61.238 176.952 61.2228C177.153 61.1849 177.28 61.1697 177.362 61.1621C177.451 61.1469 177.541 61.1469 177.638 61.1469L178.405 61.2228C178.487 61.2228 178.576 61.2 178.643 61.1393C178.71 61.0862 178.755 61.0028 178.755 60.9041V51.5716C178.755 51.4806 178.718 51.3895 178.643 51.3364C178.569 51.2681 178.479 51.2453 178.397 51.2605Z" fill="#ED1C24"/>
<path d="M189.171 51.3745C189.097 51.2834 188.992 51.2303 188.866 51.2531C188.247 51.3669 188.158 51.3365 188.016 51.3214C187.927 51.2986 187.83 51.2834 187.733 51.2531C187.584 51.2151 187.42 51.2986 187.368 51.4731C186.951 52.6568 186.482 53.9238 185.96 55.2441C185.558 56.2987 185.163 57.2623 184.79 58.059C184.246 56.8602 183.814 55.8435 183.479 54.9557C183.054 53.8404 182.645 52.6719 182.257 51.4655C182.205 51.3138 182.034 51.2227 181.914 51.2455C181.81 51.2607 181.668 51.2758 181.482 51.291C181.08 51.3365 180.797 51.3214 180.596 51.3062C180.461 51.291 180.312 51.2758 180.178 51.2455C180.104 51.2227 179.955 51.2758 179.88 51.3669C179.806 51.4655 179.798 51.5869 179.843 51.678L183.643 60.7829L181.147 65.7602C181.095 65.8513 181.102 65.9727 181.162 66.0713C181.221 66.1624 181.318 66.2231 181.43 66.2231C181.482 66.2231 181.579 66.2155 181.736 66.1548C181.862 66.1244 182.145 66.1244 182.369 66.1548C182.458 66.1624 182.548 66.1851 182.645 66.2155C182.667 66.2155 182.704 66.2231 182.704 66.2231C182.853 66.2231 182.965 66.1472 183.017 66.0258C183.598 64.5387 184.246 62.9605 184.947 61.314C185.312 60.4794 185.997 58.9088 187.018 56.625C187.107 56.4049 187.495 55.5324 188.165 54.0149L189.194 51.6931C189.253 51.5945 189.238 51.4731 189.171 51.3745Z" fill="#ED1C24"/>
<path d="M207.686 47.2924C207.485 47.3379 207.068 47.3455 206.8 47.3075C206.673 47.2924 206.569 47.2848 206.45 47.262C206.323 47.2317 206.263 47.2696 206.189 47.3227C206.122 47.3834 206.077 47.4669 206.077 47.5731V52.8691C205.787 52.8767 205.31 52.8843 204.647 52.8995C203.581 52.9222 202.829 52.945 202.382 52.945C202.352 52.945 202.203 52.9298 201.942 52.9298L200.683 52.8919C199.796 52.8615 199.118 52.8615 198.634 52.8539V47.5655C198.634 47.391 198.492 47.2468 198.321 47.2468C198.209 47.2468 198.097 47.262 197.948 47.2924C197.844 47.3227 197.688 47.3303 197.487 47.3303C197.338 47.3303 197.233 47.3227 197.099 47.3C197.002 47.2848 196.868 47.262 196.667 47.2393C196.615 47.2393 196.488 47.2544 196.429 47.3227C196.361 47.3834 196.324 47.4669 196.324 47.5579V60.9042C196.324 61.0028 196.361 61.0863 196.429 61.147C196.496 61.2077 196.592 61.2305 196.682 61.2153C196.913 61.1773 197.062 61.1622 197.166 61.1546C197.315 61.1318 197.621 61.1242 197.859 61.1622C197.978 61.1773 198.105 61.2001 198.246 61.2305C198.314 61.2608 198.433 61.2305 198.507 61.1698C198.582 61.1091 198.626 61.0104 198.626 60.9194V54.4777C198.746 54.4777 198.902 54.4701 199.088 54.4625L200.087 54.4397C201.16 54.417 201.905 54.4018 202.382 54.4018C202.434 54.4018 203 54.417 204.065 54.4397C204.937 54.4625 205.6 54.4777 206.077 54.4852V60.8966C206.077 60.9952 206.114 61.0787 206.189 61.1394C206.256 61.2001 206.353 61.2229 206.442 61.2077C206.517 61.1925 206.599 61.1925 206.785 61.1698C207.09 61.1318 207.359 61.1242 207.604 61.1546C207.724 61.1698 207.865 61.1925 208.007 61.2229H208.074C208.141 61.2229 208.215 61.2001 208.268 61.1622C208.342 61.1015 208.387 61.0028 208.387 60.9118V47.5655C208.387 47.391 208.245 47.2468 208.074 47.2468C207.984 47.2468 207.865 47.262 207.686 47.2924Z" fill="white"/>
<path d="M215.048 51.1392C213.706 51.1392 212.574 51.6172 211.687 52.558C210.808 53.4913 210.376 54.7128 210.376 56.1696V56.6021C210.376 57.9906 210.816 59.1742 211.672 60.0923C212.507 60.9497 213.535 61.3898 214.757 61.3898C216.173 61.3898 217.342 60.8511 218.214 59.7812C218.974 58.8252 219.361 57.634 219.361 56.2151C219.361 54.7204 218.974 53.4913 218.199 52.558C217.387 51.6172 216.329 51.1392 215.048 51.1392ZM216.664 58.7342C216.232 59.6674 215.651 60.1227 214.884 60.1227C214.071 60.1227 213.475 59.7509 213.051 58.9997C212.671 58.332 212.477 57.4747 212.477 56.4276C212.477 55.2895 212.671 54.3486 213.058 53.6354C213.498 52.8008 214.131 52.3911 215.003 52.3911C215.77 52.3911 216.336 52.7856 216.716 53.6051C217.044 54.2576 217.216 55.1074 217.216 56.1241C217.216 57.0877 217.037 57.9678 216.664 58.7342Z" fill="white"/>
<path d="M228.742 59.8192L228.198 59.895C228.131 59.895 228.094 59.8875 228.094 59.8875C228.064 59.8419 228.027 59.7357 228.027 59.4853V54.7204C228.027 52.3759 226.857 51.1392 224.629 51.1392C224.011 51.1392 223.445 51.2378 222.916 51.4502C222.409 51.6323 221.88 51.9207 221.358 52.2849C221.277 52.338 221.224 52.4366 221.224 52.5504V53.6354C221.224 53.8099 221.366 53.9541 221.537 53.9541H221.753C221.895 53.9541 222.014 53.863 222.051 53.7265C222.118 53.4761 222.297 53.2485 222.595 53.0436C222.975 52.7401 223.445 52.5884 224.011 52.5884C224.659 52.5884 225.151 52.7629 225.464 53.0967C225.784 53.4381 225.948 53.9313 225.948 54.5687C225.948 54.9556 225.784 55.1757 225.419 55.2971C225.196 55.3654 224.652 55.4564 224.19 55.5323C222.625 55.8054 221.619 56.1696 221.128 56.64C220.628 57.1256 220.375 57.8009 220.375 58.6583C220.375 59.4626 220.658 60.1302 221.217 60.631C221.746 61.1166 222.446 61.3822 223.229 61.3822C224.264 61.3822 225.196 61.0256 226.037 60.2744C226.127 60.502 226.261 60.6765 226.432 60.8055C226.701 61.0332 227.066 61.1546 227.543 61.1546H227.557L228.265 61.0711C228.526 61.0256 228.757 60.9497 228.951 60.8435C229.055 60.7828 229.115 60.6841 229.115 60.5551V60.1303C229.115 60.0316 229.077 59.9482 229.01 59.8875C228.928 59.8419 228.876 59.8192 228.742 59.8192ZM225.874 58.8252C225.851 58.848 225.829 58.8859 225.769 58.939C225.65 59.0604 225.553 59.1439 225.397 59.2653C225.255 59.4398 225.061 59.5915 224.816 59.7205C224.57 59.8419 224.339 59.895 224.115 59.895C223.594 59.895 223.206 59.7736 222.945 59.5233C222.677 59.2805 222.543 58.9087 222.543 58.3851C222.543 57.7478 222.864 57.3077 223.519 57.0042C223.661 56.9284 224.1 56.7766 225.531 56.4883L225.859 56.4352V58.8252H225.874Z" fill="white"/>
<path d="M245.14 58.6507C243.658 56.9284 242.168 55.2136 240.677 53.4989L246.429 47.8007C246.526 47.7173 246.549 47.5655 246.489 47.4365C246.429 47.3075 246.31 47.2241 246.169 47.262L245.841 47.3C245.52 47.3531 245.289 47.3227 245.185 47.3151C245.096 47.2924 244.954 47.2848 244.768 47.2468C244.634 47.262 244.582 47.2848 244.5 47.3455L239.806 52.2849C239.597 52.4897 239.418 52.6643 239.284 52.8008L239.187 52.8843C239.076 52.9981 238.956 53.0892 238.852 53.1726V47.5579C238.852 47.3834 238.711 47.2393 238.539 47.2393C238.435 47.2393 238.293 47.2544 238.167 47.2848C237.951 47.3303 237.541 47.3379 237.28 47.3C237.153 47.2848 237.034 47.2772 236.922 47.2544C236.825 47.2165 236.736 47.262 236.662 47.3151C236.587 47.3758 236.55 47.4593 236.55 47.5655V60.9118C236.55 61.0104 236.587 61.0939 236.654 61.1546C236.721 61.2153 236.84 61.238 236.9 61.2229C236.975 61.2077 237.071 61.2077 237.258 61.1849C237.563 61.147 237.824 61.1394 238.077 61.1698C238.204 61.1849 238.323 61.2077 238.465 61.238C238.487 61.238 238.509 61.238 238.532 61.238C238.606 61.238 238.673 61.2153 238.725 61.1773C238.8 61.1166 238.845 61.018 238.845 60.927V54.6218L242.771 59.3336C243.01 59.584 243.226 59.842 243.442 60.1379C243.598 60.3427 243.769 60.6007 243.956 60.889L244.09 61.0787C244.157 61.1773 244.231 61.238 244.388 61.2229C244.47 61.2077 244.574 61.2001 244.708 61.1849L244.857 61.1698C245.051 61.1546 245.23 61.1394 245.379 61.1394L246.414 61.2305C246.504 61.2456 246.593 61.2153 246.66 61.1622C246.72 61.0939 246.757 61.0104 246.757 60.9194V60.798C246.757 60.7297 246.735 60.6538 246.69 60.6007L245.14 58.6507Z" fill="white"/>
<path d="M256.578 51.3744C256.503 51.2834 256.354 51.2302 256.28 51.253C255.989 51.2985 255.81 51.3289 255.713 51.3289C255.594 51.3289 255.49 51.3213 255.408 51.3137C255.318 51.2909 255.222 51.2758 255.132 51.2454C254.976 51.2075 254.819 51.3061 254.767 51.4655C254.424 52.4822 253.97 53.7189 253.366 55.2364C252.904 56.4125 252.524 57.3305 252.197 58.0589C251.668 56.9132 251.243 55.8965 250.885 54.9557C250.446 53.8479 250.036 52.6719 249.663 51.473C249.626 51.3441 249.499 51.253 249.365 51.253H249.328C249.224 51.2682 249.075 51.2834 248.896 51.2985C248.538 51.3441 248.24 51.3289 247.994 51.3137C247.868 51.2985 247.726 51.2834 247.577 51.253C247.451 51.2302 247.346 51.2834 247.287 51.3744C247.212 51.473 247.197 51.5944 247.242 51.6855L251.049 60.7904L248.538 65.7602C248.494 65.8588 248.501 65.9802 248.553 66.0712C248.68 66.2685 248.963 66.223 249.127 66.1623C249.261 66.1319 249.559 66.1319 249.775 66.1623C249.85 66.1699 249.939 66.1926 250.043 66.223C250.066 66.223 250.096 66.2306 250.096 66.2306C250.252 66.2306 250.371 66.1547 250.416 66.0333C250.923 64.7586 251.556 63.2108 252.368 61.3215C252.748 60.4186 253.463 58.7949 254.424 56.6401C254.573 56.3214 255.311 54.6598 256.622 51.7007C256.66 51.5944 256.645 51.473 256.578 51.3744Z" fill="white"/>
<path d="M249.358 48.3773C249.432 48.4455 249.514 48.529 249.589 48.6049C249.663 48.6732 249.745 48.7339 249.864 48.8553L252.882 50.7597C252.934 50.7976 252.986 50.8052 253.046 50.8052H253.687H253.694H253.701C253.88 50.8052 254.014 50.6687 254.014 50.4866C254.014 50.3652 253.955 50.2665 253.858 50.2058L251.511 47.8158L251.429 47.7323C251.362 47.6564 251.287 47.573 251.198 47.4819C251.049 47.315 250.893 47.186 250.766 47.0874C250.744 47.0722 250.714 47.0495 250.691 47.0419C250.639 47.0191 250.58 46.9812 250.483 46.9356C250.438 46.9129 250.386 46.8977 250.334 46.8977H250.177C249.551 46.8977 249.32 47.2771 249.246 47.5047C249.231 47.535 249.224 47.573 249.224 47.6033V47.8385C249.224 48.0282 249.246 48.18 249.298 48.2862C249.306 48.3166 249.335 48.3545 249.358 48.3773Z" fill="white"/>
</svg>
